<svg id="Layer_1" data-name="Layer 1" xmlns="http://www.w3.org/2000/svg" viewBox="0 0 132.3 162.7"><defs><style>.cls-1,.cls-2,.cls-4,.cls-5,.cls-6{fill:none;}.cls-1,.cls-4{stroke:#1fa9ce;}.cls-1,.cls-2,.cls-3,.cls-4,.cls-5,.cls-6{stroke-miterlimit:10;}.cls-1{stroke-width:2.61px;}.cls-1,.cls-2,.cls-4,.cls-5{fill-rule:evenodd;}.cls-2{stroke:#c62086;}.cls-2,.cls-4,.cls-5,.cls-6{stroke-width:3px;}.cls-3{fill:#f39200;stroke:#f39200;stroke-width:0.25px;}.cls-5,.cls-6{stroke:#aacf34;}</style></defs><path class="cls-1" d="M125.3,117.6a7.6,7.6,0,0,0,1.6-4.7h0V33.6a8,8,0,0,0-8-8H13a8,8,0,0,0-8,8v79.2H5a8,8,0,0,0,8,8H50.4l-3,15.1H37a2,2,0,0,0-1.9,1.9v7.7a1.9,1.9,0,0,0,1.9,1.9H94.9a1.8,1.8,0,0,0,1.9-1.9v-7.7a1.9,1.9,0,0,0-1.9-1.9H84.5l-2.9-15.1h28.6"/><path class="cls-2" d="M31,44.4a5.1,5.1,0,0,1,8.7,0l5.1,8.9,5.1,8.9a5,5,0,0,1-4.3,7.5H25.1a5,5,0,0,1-4.4-7.5l5.2-8.9Z"/><path class="cls-3" d="M33.7,64.4a1.6,1.6,0,0,1,1.6-1.7,1.6,1.6,0,0,1,1.6,1.7A1.5,1.5,0,0,1,35.3,66,1.6,1.6,0,0,1,33.7,64.4Zm.7-3.9L34,47.7h2.6l-.4,12.8Z"/><path class="cls-4" d="M117.7,110h1.2V36.7a4,4,0,0,0-4-4H17.3c-2.2,0-4,1.8-5,4V110H99.4"/><path class="cls-5" d="M80.3,104.2A25.2,25.2,0,1,1,105.4,79,25.2,25.2,0,0,1,80.3,104.2Z"/><circle class="cls-6" cx="80.3" cy="79" r="19.4"/><path class="cls-5" d="M101,93.3l25,25a6.5,6.5,0,1,1-9.2,9.2L91.1,101.7"/></svg>