<svg xmlns="http://www.w3.org/2000/svg" xmlns:xlink="http://www.w3.org/1999/xlink" viewBox="0 0 79.2 71.1"><defs><style>.cls-1{fill:url(#linear-gradient);}.cls-2{fill:#f39200;}</style><linearGradient id="linear-gradient" x1="1513.77" y1="35.53" x2="1564.67" y2="35.53" gradientTransform="matrix(-1, 0, 0, 1, 1592.98, 0)" gradientUnits="userSpaceOnUse"><stop offset="0" stop-color="#fe3e16" stop-opacity="0.8"/><stop offset="0.15" stop-color="#fe3e16" stop-opacity="0.85"/><stop offset="0.44" stop-color="#fe3e16" stop-opacity="0.93"/><stop offset="0.72" stop-color="#fe3e16" stop-opacity="0.98"/><stop offset="1" stop-color="#fe3e16"/></linearGradient></defs><g id="Layer_2" data-name="Layer 2"><g id="Layer_1-2" data-name="Layer 1"><path class="cls-1" d="M77.5,38.9a4.2,4.2,0,0,0,0-6.8L55.2,15.7,35.1.8a4.3,4.3,0,0,0-6.8,3.4V66.8a4.3,4.3,0,0,0,6.8,3.4L55.2,55.4Z"/><path class="cls-2" d="M49.2,38.9a4.2,4.2,0,0,0,0-6.8L26.9,15.7,6.8.8A4.3,4.3,0,0,0,0,4.2V66.8a4.3,4.3,0,0,0,6.8,3.4L26.9,55.4Z"/></g></g></svg>