<svg xmlns="http://www.w3.org/2000/svg" xmlns:xlink="http://www.w3.org/1999/xlink" viewBox="0 0 87.6 78.6"><defs><style>.cls-1{fill:url(#linear-gradient);}.cls-2{fill:#f39200;}</style><linearGradient id="linear-gradient" x1="-855.91" y1="39.31" x2="-799.61" y2="39.31" gradientTransform="matrix(-1, 0, 0, 1, -768.29, 0)" gradientUnits="userSpaceOnUse"><stop offset="0" stop-color="#aacf34" stop-opacity="0.8"/><stop offset="0.05" stop-color="#aacf34" stop-opacity="0.82"/><stop offset="0.38" stop-color="#aacf34" stop-opacity="0.92"/><stop offset="0.69" stop-color="#aacf34" stop-opacity="0.98"/><stop offset="1" stop-color="#aacf34"/></linearGradient></defs><g id="Layer_2" data-name="Layer 2"><g id="Layer_1-2" data-name="Layer 1"><path class="cls-1" d="M85.7,43.1a4.7,4.7,0,0,0,0-7.6L61.1,17.4,38.8.9a4.7,4.7,0,0,0-7.5,3.8V73.9a4.7,4.7,0,0,0,7.5,3.8L61.1,61.3Z"/><path class="cls-2" d="M54.4,43.1a4.8,4.8,0,0,0,0-7.6L29.8,17.4,7.5.9A4.7,4.7,0,0,0,0,4.7V73.9a4.7,4.7,0,0,0,7.5,3.8L29.8,61.3Z"/></g></g></svg>