<svg xmlns="http://www.w3.org/2000/svg" viewBox="0 0 566.4 347"><defs><style>.cls-1{opacity:0.2;}.cls-2{fill:#2b506a;stroke:#94a6b5;stroke-linecap:round;stroke-linejoin:round;stroke-width:2.25px;}</style></defs><g id="Layer_2" data-name="Layer 2"><g id="Layer_1-2" data-name="Layer 1"><g class="cls-1"><polygon class="cls-2" points="29.1 155.7 29.1 132.3 117.7 183.4 117.7 206.8 29.1 155.7"/><polygon class="cls-2" points="29.1 132.3 117.7 81.1 206.3 132.3 117.7 183.4 29.1 132.3"/><polygon class="cls-2" points="117.7 183.4 206.3 132.3 206.3 155.7 117.7 206.8 117.7 183.4"/></g><g class="cls-1"><polygon class="cls-2" points="388.1 75.7 388.1 52.3 476.7 103.4 476.7 126.8 388.1 75.7"/><polygon class="cls-2" points="388.1 52.3 476.7 1.1 565.3 52.3 476.7 103.4 388.1 52.3"/><polygon class="cls-2" points="476.7 103.4 565.3 52.3 565.3 75.7 476.7 126.8 476.7 103.4"/></g><g class="cls-1"><polygon class="cls-2" points="200.1 83.7 200.1 60.3 288.7 111.4 288.7 134.8 200.1 83.7"/><polygon class="cls-2" points="200.1 60.3 288.7 9.1 377.3 60.3 288.7 111.4 200.1 60.3"/><polygon class="cls-2" points="288.7 111.4 377.3 60.3 377.3 83.7 288.7 134.8 288.7 111.4"/></g><g class="cls-1"><polygon class="cls-2" points="1.1 294.7 1.1 271.3 89.7 322.4 89.7 345.8 1.1 294.7"/><polygon class="cls-2" points="1.1 271.3 89.7 220.1 178.3 271.3 89.7 322.4 1.1 271.3"/><polygon class="cls-2" points="89.7 322.4 178.3 271.3 178.3 294.7 89.7 345.8 89.7 322.4"/></g></g></g></svg>