<?xml version="1.0" encoding="utf-8"?>
<!-- Generator: Adobe Illustrator 25.2.0, SVG Export Plug-In . SVG Version: 6.00 Build 0)  -->
<svg version="1.1" id="Layer_1" xmlns="http://www.w3.org/2000/svg" xmlns:xlink="http://www.w3.org/1999/xlink" x="0px" y="0px"
	 viewBox="0 0 619.4 378" style="enable-background:new 0 0 619.4 378;" xml:space="preserve">
<style type="text/css">
	.st0{opacity:0.2;}
	.st1{fill:#2B506A;stroke:#94A6B5;stroke-width:2.25;stroke-linecap:round;stroke-linejoin:round;}
</style>
<g id="Layer_2_1_">
	<g id="Layer_1-2">
		<g class="st0">
			<polygon class="st1" points="177.1,81.7 177.1,58.3 265.7,109.4 265.7,132.8 			"/>
			<polygon class="st1" points="177.1,58.3 265.7,7.1 354.3,58.3 265.7,109.4 			"/>
			<polygon class="st1" points="265.7,109.4 354.3,58.3 354.3,81.7 265.7,132.8 			"/>
		</g>
		<g class="st0">
			<polygon class="st1" points="179.1,325.7 179.1,302.3 267.7,353.4 267.7,376.8 			"/>
			<polygon class="st1" points="179.1,302.3 267.7,251.1 356.3,302.3 267.7,353.4 			"/>
			<polygon class="st1" points="267.7,353.4 356.3,302.3 356.3,325.7 267.7,376.8 			"/>
		</g>
		<g class="st0">
			<polygon class="st1" points="1.1,199.7 1.1,176.3 89.7,227.4 89.7,250.8 			"/>
			<polygon class="st1" points="1.1,176.3 89.7,125.1 178.3,176.3 89.7,227.4 			"/>
			<polygon class="st1" points="89.7,227.4 178.3,176.3 178.3,199.7 89.7,250.8 			"/>
		</g>
		<g class="st0">
			<polygon class="st1" points="441.1,75.7 441.1,52.3 529.7,103.4 529.7,126.8 			"/>
			<polygon class="st1" points="441.1,52.3 529.7,1.1 618.3,52.3 529.7,103.4 			"/>
			<polygon class="st1" points="529.7,103.4 618.3,52.3 618.3,75.7 529.7,126.8 			"/>
		</g>
		<g class="st0">
			<polygon class="st1" points="1.1,325.4 1.1,302 89.7,353.1 89.7,376.5 			"/>
			<polygon class="st1" points="1.1,302 89.7,250.8 178.3,302 89.7,353.1 			"/>
			<polygon class="st1" points="89.7,353.1 178.3,302 178.3,325.4 89.7,376.5 			"/>
		</g>
	</g>
</g>
</svg>
