<svg xmlns="http://www.w3.org/2000/svg" viewBox="0 0 619.4 378"><defs><style>.cls-1{opacity:0.2;}.cls-2{fill:#2b506a;stroke:#94a6b5;stroke-linecap:round;stroke-linejoin:round;stroke-width:2.25px;}</style></defs><g id="Layer_2" data-name="Layer 2"><g id="Layer_1-2" data-name="Layer 1"><g class="cls-1"><polygon class="cls-2" points="177.1 81.7 177.1 58.3 265.7 109.4 265.7 132.8 177.1 81.7"/><polygon class="cls-2" points="177.1 58.3 265.7 7.1 354.3 58.3 265.7 109.4 177.1 58.3"/><polygon class="cls-2" points="265.7 109.4 354.3 58.3 354.3 81.7 265.7 132.8 265.7 109.4"/></g><g class="cls-1"><polygon class="cls-2" points="183.1 325.7 183.1 302.3 271.7 353.4 271.7 376.8 183.1 325.7"/><polygon class="cls-2" points="183.1 302.3 271.7 251.1 360.3 302.3 271.7 353.4 183.1 302.3"/><polygon class="cls-2" points="271.7 353.4 360.3 302.3 360.3 325.7 271.7 376.8 271.7 353.4"/></g><g class="cls-1"><polygon class="cls-2" points="1.1 199.7 1.1 176.3 89.7 227.4 89.7 250.8 1.1 199.7"/><polygon class="cls-2" points="1.1 176.3 89.7 125.1 178.3 176.3 89.7 227.4 1.1 176.3"/><polygon class="cls-2" points="89.7 227.4 178.3 176.3 178.3 199.7 89.7 250.8 89.7 227.4"/></g><g class="cls-1"><polygon class="cls-2" points="441.1 75.7 441.1 52.3 529.7 103.4 529.7 126.8 441.1 75.7"/><polygon class="cls-2" points="441.1 52.3 529.7 1.1 618.3 52.3 529.7 103.4 441.1 52.3"/><polygon class="cls-2" points="529.7 103.4 618.3 52.3 618.3 75.7 529.7 126.8 529.7 103.4"/></g></g></g></svg>