<svg xmlns="http://www.w3.org/2000/svg" viewBox="0 0 444.4 365"><defs><style>.cls-1{opacity:0.2;}.cls-2{fill:#2b506a;stroke:#94a6b5;stroke-linecap:round;stroke-linejoin:round;stroke-width:2.25px;}</style></defs><g id="Layer_2" data-name="Layer 2"><g id="Layer_1-2" data-name="Layer 1"><g class="cls-1"><polygon class="cls-2" points="15.1 153.7 15.1 130.3 103.7 181.4 103.7 204.8 15.1 153.7"/><polygon class="cls-2" points="15.1 130.3 103.7 79.1 192.3 130.3 103.7 181.4 15.1 130.3"/><polygon class="cls-2" points="103.7 181.4 192.3 130.3 192.3 153.7 103.7 204.8 103.7 181.4"/></g><g class="cls-1"><polygon class="cls-2" points="1.1 312.7 1.1 289.3 89.7 340.4 89.7 363.8 1.1 312.7"/><polygon class="cls-2" points="1.1 289.3 89.7 238.1 178.3 289.3 89.7 340.4 1.1 289.3"/><polygon class="cls-2" points="89.7 340.4 178.3 289.3 178.3 312.7 89.7 363.8 89.7 340.4"/></g><g class="cls-1"><polygon class="cls-2" points="137.1 75.7 137.1 52.3 225.7 103.4 225.7 126.8 137.1 75.7"/><polygon class="cls-2" points="137.1 52.3 225.7 1.1 314.3 52.3 225.7 103.4 137.1 52.3"/><polygon class="cls-2" points="225.7 103.4 314.3 52.3 314.3 75.7 225.7 126.8 225.7 103.4"/></g><g class="cls-1"><polygon class="cls-2" points="266.1 147.7 266.1 124.3 354.7 175.4 354.7 198.8 266.1 147.7"/><polygon class="cls-2" points="266.1 124.3 354.7 73.1 443.3 124.3 354.7 175.4 266.1 124.3"/><polygon class="cls-2" points="354.7 175.4 443.3 124.3 443.3 147.7 354.7 198.8 354.7 175.4"/></g></g></g></svg>