<svg xmlns="http://www.w3.org/2000/svg" viewBox="0 0 604.4 413"><defs><style>.cls-1{opacity:0.2;}.cls-2{fill:#2b506a;stroke:#94a6b5;stroke-linecap:round;stroke-linejoin:round;stroke-width:2.25px;}</style></defs><g id="Layer_2" data-name="Layer 2"><g id="Layer_1-2" data-name="Layer 1"><g class="cls-1"><polygon class="cls-2" points="1.1 360.7 1.1 337.3 89.7 388.4 89.7 411.8 1.1 360.7"/><polygon class="cls-2" points="1.1 337.3 89.7 286.1 178.3 337.3 89.7 388.4 1.1 337.3"/><polygon class="cls-2" points="89.7 388.4 178.3 337.3 178.3 360.7 89.7 411.8 89.7 388.4"/></g><g class="cls-1"><polygon class="cls-2" points="222.1 222.7 222.1 199.3 310.7 250.4 310.7 273.8 222.1 222.7"/><polygon class="cls-2" points="222.1 199.3 310.7 148.1 399.3 199.3 310.7 250.4 222.1 199.3"/><polygon class="cls-2" points="310.7 250.4 399.3 199.3 399.3 222.7 310.7 273.8 310.7 250.4"/></g><g class="cls-1"><polygon class="cls-2" points="426.1 75.7 426.1 52.3 514.7 103.4 514.7 126.8 426.1 75.7"/><polygon class="cls-2" points="426.1 52.3 514.7 1.1 603.3 52.3 514.7 103.4 426.1 52.3"/><polygon class="cls-2" points="514.7 103.4 603.3 52.3 603.3 75.7 514.7 126.8 514.7 103.4"/></g><g class="cls-1"><polygon class="cls-2" points="426.1 216.7 426.1 193.3 514.7 244.4 514.7 267.8 426.1 216.7"/><polygon class="cls-2" points="426.1 193.3 514.7 142.1 603.3 193.3 514.7 244.4 426.1 193.3"/><polygon class="cls-2" points="514.7 244.4 603.3 193.3 603.3 216.7 514.7 267.8 514.7 244.4"/></g></g></g></svg>