<?xml version="1.0" encoding="utf-8"?>
<!-- Generator: Adobe Illustrator 25.2.0, SVG Export Plug-In . SVG Version: 6.00 Build 0)  -->
<svg version="1.1" id="Layer_1" xmlns="http://www.w3.org/2000/svg" xmlns:xlink="http://www.w3.org/1999/xlink" x="0px" y="0px"
	 viewBox="0 0 646 365" style="enable-background:new 0 0 646 365;" xml:space="preserve">
<style type="text/css">
	.st0{opacity:0.2;}
	.st1{fill:#2B506A;stroke:#94A6B5;stroke-width:2.25;stroke-linecap:round;stroke-linejoin:round;}
</style>
<g id="Layer_2_1_">
	<g id="Layer_1-2">
		<g class="st0">
			<polygon class="st1" points="19.1,153.2 19.1,129.8 107.7,180.9 107.7,204.3 			"/>
			<polygon class="st1" points="19.1,129.8 107.7,78.6 196.3,129.8 107.7,180.9 			"/>
			<polygon class="st1" points="107.7,180.9 196.3,129.8 196.3,153.2 107.7,204.3 			"/>
		</g>
		<g class="st0">
			<polygon class="st1" points="5.1,312.2 5.1,288.8 93.7,339.9 93.7,363.3 			"/>
			<polygon class="st1" points="5.1,288.8 93.7,237.6 182.3,288.8 93.7,339.9 			"/>
			<polygon class="st1" points="93.7,339.9 182.3,288.8 182.3,312.2 93.7,363.3 			"/>
		</g>
		<g class="st0">
			<polygon class="st1" points="462.2,153.2 462.2,129.8 550.8,180.9 550.8,204.3 			"/>
			<polygon class="st1" points="462.2,129.8 550.8,78.6 639.4,129.8 550.8,180.9 			"/>
			<polygon class="st1" points="550.8,180.9 639.4,129.8 639.4,153.2 550.8,204.3 			"/>
		</g>
		<g class="st0">
			<polygon class="st1" points="141.1,75.2 141.1,51.8 229.7,102.9 229.7,126.3 			"/>
			<polygon class="st1" points="141.1,51.8 229.7,0.6 318.3,51.8 229.7,102.9 			"/>
			<polygon class="st1" points="229.7,102.9 318.3,51.8 318.3,75.2 229.7,126.3 			"/>
		</g>
		<g class="st0">
			<polygon class="st1" points="270.1,147.2 270.1,123.8 358.7,174.9 358.7,198.3 			"/>
			<polygon class="st1" points="270.1,123.8 358.7,72.6 447.3,123.8 358.7,174.9 			"/>
			<polygon class="st1" points="358.7,174.9 447.3,123.8 447.3,147.2 358.7,198.3 			"/>
		</g>
	</g>
</g>
</svg>
