<?xml version="1.0" encoding="utf-8"?>
<!-- Generator: Adobe Illustrator 25.2.0, SVG Export Plug-In . SVG Version: 6.00 Build 0)  -->
<svg version="1.1" id="Layer_1" xmlns="http://www.w3.org/2000/svg" xmlns:xlink="http://www.w3.org/1999/xlink" x="0px" y="0px"
	 viewBox="0 0 569.6 333.9" style="enable-background:new 0 0 569.6 333.9;" xml:space="preserve">
<style type="text/css">
	.st0{opacity:0.2;}
	.st1{fill:#2B506A;stroke:#94A6B5;stroke-width:2.02;stroke-linecap:round;stroke-linejoin:round;}
	.st2{fill:#2B506A;stroke:#94A6B5;stroke-width:1.98;stroke-linecap:round;stroke-linejoin:round;}
</style>
<g id="Layer_2_1_">
	<g id="Layer_1-2">
		<g class="st0">
			<polygon class="st1" points="17,216.8 17,195.8 96.3,241.6 96.3,262.5 			"/>
			<polygon class="st1" points="17,195.8 96.3,150 175.6,195.8 96.3,241.6 			"/>
			<polygon class="st1" points="96.3,241.6 175.6,195.8 175.6,216.8 96.3,262.5 			"/>
		</g>
		<g class="st0">
			<polygon class="st1" points="132,149.8 132,128.8 211.3,174.6 211.3,195.5 			"/>
			<polygon class="st1" points="132,128.8 211.3,83 290.6,128.8 211.3,174.6 			"/>
			<polygon class="st1" points="211.3,174.6 290.6,128.8 290.6,149.8 211.3,195.5 			"/>
		</g>
		<g class="st0">
			<polygon class="st1" points="251,77.8 251,56.8 330.3,102.6 330.3,123.5 			"/>
			<polygon class="st1" points="251,56.8 330.3,11 409.6,56.8 330.3,102.6 			"/>
			<polygon class="st1" points="330.3,102.6 409.6,56.8 409.6,77.8 330.3,123.5 			"/>
		</g>
		<g class="st0">
			<polygon class="st1" points="410,172.8 410,151.8 489.3,197.6 489.3,218.5 			"/>
			<polygon class="st1" points="410,151.8 489.3,106 568.6,151.8 489.3,197.6 			"/>
			<polygon class="st1" points="489.3,197.6 568.6,151.8 568.6,172.8 489.3,218.5 			"/>
		</g>
		<g class="st0">
			<polygon class="st2" points="133.7,287.8 133.7,267.2 211.8,312.2 211.8,332.9 			"/>
			<polygon class="st2" points="133.7,267.2 211.8,222.1 289.8,267.2 211.8,312.2 			"/>
			<polygon class="st2" points="211.8,312.2 289.8,267.2 289.8,287.8 211.8,332.9 			"/>
		</g>
	</g>
</g>
</svg>
