<?xml version="1.0" encoding="utf-8"?>
<!-- Generator: Adobe Illustrator 25.2.0, SVG Export Plug-In . SVG Version: 6.00 Build 0)  -->
<svg version="1.1" id="Layer_1" xmlns="http://www.w3.org/2000/svg" xmlns:xlink="http://www.w3.org/1999/xlink" x="0px" y="0px"
	 viewBox="0 0 796.6 333.9" style="enable-background:new 0 0 796.6 333.9;" xml:space="preserve">
<style type="text/css">
	.st0{opacity:0.2;}
	.st1{fill:#2B506A;stroke:#94A6B5;stroke-width:2.02;stroke-linecap:round;stroke-linejoin:round;}
	.st2{fill:#2B506A;stroke:#94A6B5;stroke-width:1.98;stroke-linecap:round;stroke-linejoin:round;}
</style>
<g id="Layer_2_1_">
	<g id="Layer_1-2">
		<g class="st0">
			<polygon class="st1" points="244,216.8 244,195.8 323.3,241.6 323.3,262.5 			"/>
			<polygon class="st1" points="244,195.8 323.3,150 402.6,195.8 323.3,241.6 			"/>
			<polygon class="st1" points="323.3,241.6 402.6,195.8 402.6,216.8 323.3,262.5 			"/>
		</g>
		<g class="st0">
			<polygon class="st1" points="359,149.8 359,128.8 438.3,174.6 438.3,195.5 			"/>
			<polygon class="st1" points="359,128.8 438.3,83 517.6,128.8 438.3,174.6 			"/>
			<polygon class="st1" points="438.3,174.6 517.6,128.8 517.6,149.8 438.3,195.5 			"/>
		</g>
		<g class="st0">
			<polygon class="st1" points="478,77.8 478,56.8 557.3,102.6 557.3,123.5 			"/>
			<polygon class="st1" points="478,56.8 557.3,11 636.6,56.8 557.3,102.6 			"/>
			<polygon class="st1" points="557.3,102.6 636.6,56.8 636.6,77.8 557.3,123.5 			"/>
		</g>
		<g class="st0">
			<polygon class="st1" points="637,172.8 637,151.8 716.3,197.6 716.3,218.5 			"/>
			<polygon class="st1" points="637,151.8 716.3,106 795.6,151.8 716.3,197.6 			"/>
			<polygon class="st1" points="716.3,197.6 795.6,151.8 795.6,172.8 716.3,218.5 			"/>
		</g>
		<g class="st0">
			<polygon class="st2" points="360.7,287.8 360.7,267.2 438.8,312.2 438.8,332.9 			"/>
			<polygon class="st2" points="360.7,267.2 438.8,222.1 516.8,267.2 438.8,312.2 			"/>
			<polygon class="st2" points="438.8,312.2 516.8,267.2 516.8,287.8 438.8,332.9 			"/>
		</g>
	</g>
</g>
</svg>
