<svg xmlns="http://www.w3.org/2000/svg" viewBox="0 0 796.6 333.9"><defs><style>.cls-1{opacity:0.2;}.cls-2,.cls-3{fill:#2b506a;stroke:#94a6b5;stroke-linecap:round;stroke-linejoin:round;}.cls-2{stroke-width:2.02px;}.cls-3{stroke-width:1.98px;}</style></defs><g id="Layer_2" data-name="Layer 2"><g id="Layer_1-2" data-name="Layer 1"><g class="cls-1"><polygon class="cls-2" points="244 216.8 244 195.8 323.3 241.6 323.3 262.5 244 216.8"/><polygon class="cls-2" points="244 195.8 323.3 150 402.6 195.8 323.3 241.6 244 195.8"/><polygon class="cls-2" points="323.3 241.6 402.6 195.8 402.6 216.8 323.3 262.5 323.3 241.6"/></g><g class="cls-1"><polygon class="cls-2" points="1 265.8 1 244.8 80.3 290.6 80.3 311.5 1 265.8"/><polygon class="cls-2" points="1 244.8 80.3 199 159.6 244.8 80.3 290.6 1 244.8"/><polygon class="cls-2" points="80.3 290.6 159.6 244.8 159.6 265.8 80.3 311.5 80.3 290.6"/></g><g class="cls-1"><polygon class="cls-2" points="69 67.8 69 46.8 148.3 92.6 148.3 113.5 69 67.8"/><polygon class="cls-2" points="69 46.8 148.3 1 227.6 46.8 148.3 92.6 69 46.8"/><polygon class="cls-2" points="148.3 92.6 227.6 46.8 227.6 67.8 148.3 113.5 148.3 92.6"/></g><g class="cls-1"><polygon class="cls-2" points="359 149.8 359 128.8 438.3 174.6 438.3 195.5 359 149.8"/><polygon class="cls-2" points="359 128.8 438.3 83 517.6 128.8 438.3 174.6 359 128.8"/><polygon class="cls-2" points="438.3 174.6 517.6 128.8 517.6 149.8 438.3 195.5 438.3 174.6"/></g><g class="cls-1"><polygon class="cls-2" points="478 77.8 478 56.8 557.3 102.6 557.3 123.5 478 77.8"/><polygon class="cls-2" points="478 56.8 557.3 11 636.6 56.8 557.3 102.6 478 56.8"/><polygon class="cls-2" points="557.3 102.6 636.6 56.8 636.6 77.8 557.3 123.5 557.3 102.6"/></g><g class="cls-1"><polygon class="cls-2" points="637 172.8 637 151.8 716.3 197.6 716.3 218.5 637 172.8"/><polygon class="cls-2" points="637 151.8 716.3 106 795.6 151.8 716.3 197.6 637 151.8"/><polygon class="cls-2" points="716.3 197.6 795.6 151.8 795.6 172.8 716.3 218.5 716.3 197.6"/></g><g class="cls-1"><polygon class="cls-3" points="360.7 287.8 360.7 267.2 438.8 312.2 438.8 332.9 360.7 287.8"/><polygon class="cls-3" points="360.7 267.2 438.8 222.1 516.8 267.2 438.8 312.2 360.7 267.2"/><polygon class="cls-3" points="438.8 312.2 516.8 267.2 516.8 287.8 438.8 332.9 438.8 312.2"/></g></g></g></svg>