<svg xmlns="http://www.w3.org/2000/svg" viewBox="0 0 588.6 241.5"><defs><style>.cls-1{opacity:0.2;}.cls-2{fill:#2b506a;stroke:#94a6b5;stroke-linecap:round;stroke-linejoin:round;stroke-width:2.02px;}</style></defs><g id="Layer_2" data-name="Layer 2"><g id="Layer_1-2" data-name="Layer 1"><g class="cls-1"><polygon class="cls-2" points="176 102.8 176 81.8 255.3 127.6 255.3 148.5 176 102.8"/><polygon class="cls-2" points="176 81.8 255.3 36 334.6 81.8 255.3 127.6 176 81.8"/><polygon class="cls-2" points="255.3 127.6 334.6 81.8 334.6 102.8 255.3 148.5 255.3 127.6"/></g><g class="cls-1"><polygon class="cls-2" points="429 184.8 429 163.8 508.3 209.6 508.3 230.5 429 184.8"/><polygon class="cls-2" points="429 163.8 508.3 118 587.6 163.8 508.3 209.6 429 163.8"/><polygon class="cls-2" points="508.3 209.6 587.6 163.8 587.6 184.8 508.3 230.5 508.3 209.6"/></g><g class="cls-1"><polygon class="cls-2" points="1 194.8 1 173.8 80.3 219.6 80.3 240.5 1 194.8"/><polygon class="cls-2" points="1 173.8 80.3 128 159.6 173.8 80.3 219.6 1 173.8"/><polygon class="cls-2" points="80.3 219.6 159.6 173.8 159.6 194.8 80.3 240.5 80.3 219.6"/></g><g class="cls-1"><polygon class="cls-2" points="429 67.8 429 46.8 508.3 92.6 508.3 113.5 429 67.8"/><polygon class="cls-2" points="429 46.8 508.3 1 587.6 46.8 508.3 92.6 429 46.8"/><polygon class="cls-2" points="508.3 92.6 587.6 46.8 587.6 67.8 508.3 113.5 508.3 92.6"/></g></g></g></svg>