<svg id="Layer_1" data-name="Layer 1" xmlns="http://www.w3.org/2000/svg" viewBox="0 0 80.6 82.6"><defs><style>.cls-1,.cls-2,.cls-4{fill:none;stroke-width:2px;}.cls-1{stroke:#1fa9ce;}.cls-1,.cls-3,.cls-4{stroke-miterlimit:10;}.cls-2,.cls-4{stroke:#c62086;}.cls-2{stroke-linecap:round;stroke-linejoin:round;}.cls-3{fill:#1d1d1b;stroke:#fff;}</style></defs><polygon class="cls-1" points="60.6 21.8 41.2 12.9 20.3 21.8 11.7 42.4 20.3 62.7 39.4 71.3 60.6 61.8 69.8 40.3 60.6 21.8"/><polyline class="cls-2" points="60.6 61.8 44.9 48.6 39.4 71.3 20.3 62.7 44.9 48.6 25.8 45.8 11.7 42.4 20.3 21.8 25.8 45.8 43 32.9 20.3 21.8 41.2 12.9 43 32.9 60.6 21.8 54.4 36 44.9 48.6 69.8 40.3 54.4 36 43 32.9 44.9 48.6"/><path class="cls-3" d="M42.5,50.3l2.4,1.3h0V48.9l-2.3-1.4h-.1Z"/><path class="cls-3" d="M44.8,48.9v2.7h.1l2.3-1.3V47.6h-.1Z"/><path class="cls-3" d="M42.5,47.6h0L44.8,49l2.4-1.3h0l-2.3-1.4Z"/><path class="cls-4" d="M25.8,45.8,20.3,62.7Z"/><path class="cls-3" d="M18,64l2.3,1.3h.1V62.6L18,61.3h0Z"/><path class="cls-3" d="M20.2,62.6v2.7h.1L22.6,64V61.3h0Z"/><path class="cls-3" d="M18,61.3h0l2.3,1.3,2.3-1.3h0L20.3,60Z"/><path class="cls-3" d="M23.5,47.1l2.3,1.3h.1V45.7l-2.3-1.3h-.1Z"/><path class="cls-3" d="M25.8,45.7v2.7h0l2.4-1.3V44.4h-.1Z"/><path class="cls-3" d="M23.5,44.4h0l2.3,1.3,2.4-1.3h0l-2.4-1.3Z"/><path class="cls-3" d="M17.9,23.2l2.3,1.3h.1V21.8L18,20.5h-.1Z"/><path class="cls-3" d="M20.2,21.8v2.7h0l2.4-1.3V20.5h-.1Z"/><path class="cls-3" d="M17.9,20.5h0l2.3,1.3,2.4-1.3h0l-2.4-1.3Z"/><path class="cls-3" d="M39.3,35l3.8,2.1h.1V32.7l-3.8-2.1h-.1Z"/><path class="cls-3" d="M42.9,32.7v4.4h.1L46.8,35V30.6h-.1Z"/><path class="cls-3" d="M39.3,30.6h0L43,32.9l3.8-2.2h0l-3.7-2.1Z"/><path class="cls-3" d="M58.2,23.1l2.4,1.4h0V21.7l-2.3-1.3h-.1Z"/><path class="cls-3" d="M60.5,21.7v2.7h.1l2.3-1.4V20.4h-.1Z"/><path class="cls-3" d="M58.2,20.4h0l2.4,1.3,2.3-1.3h0l-2.3-1.3Z"/><path class="cls-3" d="M66.8,41.7l2.4,1.4h0V40.3L66.9,39h-.1Z"/><path class="cls-3" d="M69.1,40.3V43h.1l2.3-1.4V39h-.1Z"/><path class="cls-3" d="M66.8,39h0l2.4,1.3,2.3-1.3h0l-2.3-1.3Z"/><path class="cls-3" d="M57.2,63.3l3.4,2h.1v-4l-3.4-2h-.1Z"/><path class="cls-3" d="M60.5,61.3v4h.1l3.5-2v-4H64Z"/><path class="cls-3" d="M57.2,59.3v.2l3.4,2,3.5-2h0l-3.5-2.1Z"/></svg>