<svg xmlns="http://www.w3.org/2000/svg" viewBox="0 0 284.3 373.3"><defs><style>.cls-1{fill:#2b506a;stroke:#94a6b5;stroke-linecap:round;stroke-linejoin:round;stroke-width:1.73px;}</style></defs><g id="Layer_2" data-name="Layer 2"><g id="Layer_1-2" data-name="Layer 1"><polygon class="cls-1" points="0.9 333.2 0.9 194.9 68.9 234.2 68.9 372.4 0.9 333.2"/><polygon class="cls-1" points="0.9 194.2 68.9 154.9 136.9 194.2 68.9 233.5 0.9 194.2"/><polygon class="cls-1" points="68.9 234.2 136.9 194.9 136.9 333.2 68.9 372.4 68.9 234.2"/><polygon class="cls-1" points="0.9 185.9 0.9 167.9 68.9 207.1 68.9 225.1 0.9 185.9"/><polygon class="cls-1" points="0.9 167.9 68.9 128.6 136.9 167.9 68.9 207.1 0.9 167.9"/><polygon class="cls-1" points="68.9 207.1 136.9 167.9 136.9 185.9 68.9 225.1 68.9 207.1"/><polygon class="cls-1" points="0.9 160.3 0.9 142.3 68.9 181.6 68.9 199.6 0.9 160.3"/><polygon class="cls-1" points="0.9 142.3 68.9 103 136.9 142.3 68.9 181.6 0.9 142.3"/><polygon class="cls-1" points="68.9 181.6 136.9 142.3 136.9 160.3 68.9 199.6 68.9 181.6"/><polygon class="cls-1" points="0.9 134.8 0.9 116.8 68.9 156 68.9 174 0.9 134.8"/><polygon class="cls-1" points="0.9 116.8 68.9 77.5 136.9 116.8 68.9 156 0.9 116.8"/><polygon class="cls-1" points="68.9 156 136.9 116.8 136.9 134.8 68.9 174 68.9 156"/><polygon class="cls-1" points="0.9 109.2 0.9 91.2 68.9 130.5 68.9 148.5 0.9 109.2"/><polygon class="cls-1" points="0.9 91.2 68.9 52 136.9 91.2 68.9 130.5 0.9 91.2"/><polygon class="cls-1" points="68.9 130.5 136.9 91.2 136.9 109.2 68.9 148.5 68.9 130.5"/><polygon class="cls-1" points="0.9 83.7 0.9 65.7 68.9 105 68.9 122.9 0.9 83.7"/><polygon class="cls-1" points="0.9 65.7 68.9 26.4 136.9 65.7 68.9 105 0.9 65.7"/><polygon class="cls-1" points="68.9 105 136.9 65.7 136.9 83.7 68.9 122.9 68.9 105"/><polygon class="cls-1" points="0.9 58.1 0.9 40.1 68.9 79.4 68.9 97.4 0.9 58.1"/><polygon class="cls-1" points="0.9 40.1 68.9 0.9 136.9 40.1 68.9 79.4 0.9 40.1"/><polygon class="cls-1" points="68.9 79.4 136.9 40.1 136.9 58.1 68.9 97.4 68.9 79.4"/><polygon class="cls-1" points="147.4 281.6 147.4 263.7 215.4 302.9 215.4 320.9 147.4 281.6"/><polygon class="cls-1" points="147.4 263.7 215.4 224.4 283.4 263.7 215.4 302.9 147.4 263.7"/><polygon class="cls-1" points="215.4 302.9 283.4 263.7 283.4 281.6 215.4 320.9 215.4 302.9"/><polygon class="cls-1" points="147.4 256.1 147.4 238.1 215.4 277.4 215.4 295.4 147.4 256.1"/><polygon class="cls-1" points="147.4 238.1 215.4 198.8 283.4 238.1 215.4 277.4 147.4 238.1"/><polygon class="cls-1" points="215.4 277.4 283.4 238.1 283.4 256.1 215.4 295.4 215.4 277.4"/><polygon class="cls-1" points="147.4 230.6 147.4 212.6 215.4 251.8 215.4 269.8 147.4 230.6"/><polygon class="cls-1" points="147.4 212.6 215.4 173.3 283.4 212.6 215.4 251.8 147.4 212.6"/><polygon class="cls-1" points="215.4 251.8 283.4 212.6 283.4 230.6 215.4 269.8 215.4 251.8"/><polygon class="cls-1" points="147.4 205 147.4 187 215.4 226.3 215.4 244.3 147.4 205"/><polygon class="cls-1" points="147.4 187 215.4 147.7 283.4 187 215.4 226.3 147.4 187"/><polygon class="cls-1" points="215.4 226.3 283.4 187 283.4 205 215.4 244.3 215.4 226.3"/><polygon class="cls-1" points="147.4 179.5 147.4 161.5 215.4 200.7 215.4 218.7 147.4 179.5"/><polygon class="cls-1" points="147.4 161.5 215.4 122.2 283.4 161.5 215.4 200.7 147.4 161.5"/><polygon class="cls-1" points="215.4 200.7 283.4 161.5 283.4 179.5 215.4 218.7 215.4 200.7"/><polygon class="cls-1" points="147.4 153.9 147.4 135.9 215.4 175.2 215.4 193.2 147.4 153.9"/><polygon class="cls-1" points="147.4 135.9 215.4 96.7 283.4 135.9 215.4 175.2 147.4 135.9"/><polygon class="cls-1" points="215.4 175.2 283.4 135.9 283.4 153.9 215.4 193.2 215.4 175.2"/></g></g></svg>