<svg id="Layer_1" data-name="Layer 1" xmlns="http://www.w3.org/2000/svg" viewBox="0 0 132.3 162.7"><defs><style>.cls-1,.cls-4,.cls-5,.cls-6,.cls-7{fill:none;stroke-miterlimit:10;stroke-width:3px;}.cls-1{stroke:#1fa9ce;}.cls-2{font-size:19.12px;font-family:NexaBold, Nexa Bold;}.cls-2,.cls-8{fill:#fe3e16;}.cls-3{letter-spacing:-0.03em;}.cls-4{stroke:#f39200;}.cls-5{stroke:#f7cd33;}.cls-6{stroke:#aacf34;}.cls-7{stroke:#c62086;}</style></defs><path class="cls-1" d="M127.6,102.7V49.6a13.4,13.4,0,0,0-13.4-13.4H18.4A13.5,13.5,0,0,0,4.9,49.6v77A13.5,13.5,0,0,0,18.4,140H77.3"/><text class="cls-2" transform="translate(60.1 61.7) scale(0.95 1)">2<tspan class="cls-3" x="12.5" y="0">0</tspan><tspan x="25.2" y="0">22</tspan></text><rect class="cls-4" x="25.4" y="76.6" width="10.5" height="10.49"/><rect class="cls-5" x="43" y="76.6" width="10.5" height="10.49"/><rect class="cls-6" x="60.6" y="76.6" width="10.5" height="10.49"/><rect class="cls-1" x="78.2" y="76.6" width="10.5" height="10.49"/><rect class="cls-7" x="95.8" y="76.6" width="10.5" height="10.49"/><rect class="cls-4" x="25.4" y="93.9" width="10.5" height="10.49"/><rect class="cls-5" x="43" y="93.9" width="10.5" height="10.49"/><rect class="cls-6" x="60.6" y="93.9" width="10.5" height="10.49"/><rect class="cls-4" x="25.4" y="111.2" width="10.5" height="10.49"/><rect class="cls-5" x="43" y="111.2" width="10.5" height="10.49"/><rect class="cls-6" x="60.6" y="111.2" width="10.5" height="10.49"/><g id="path3026"><path class="cls-8" d="M101.5,94.8a63.8,63.8,0,0,1,10,.7,32.5,32.5,0,0,1,9.4,2.9c3.5,1.7,5.3,3.6,5.3,5.4,0,3.9-9.2,9.3-24.3,9.3l-3.8-.2c-8.1-.5-17.9-3.7-19.8-7.7a2.8,2.8,0,0,1,.2-2.8c1.6-2.9,7.9-6.3,18.2-7.4l4.8-.2m24.8,21a1.7,1.7,0,0,1-.1.8c-.7,4.4-10.6,9-24.2,9a43.5,43.5,0,0,1-5.1-.2c-10-.9-17.1-4.6-18.7-7.6a2.8,2.8,0,0,1-.3-1.6,33.5,33.5,0,0,0,12,4.5,60.8,60.8,0,0,0,12.2,1.2c8.6,0,18.2-1.9,24.2-6.1m0,12.5a2.8,2.8,0,0,1-.4,1.9c-1.9,3.9-11.5,8-24.1,8a51.2,51.2,0,0,1-5.6-.3c-7.1-.7-13.9-3.1-16.8-6-1.2-1.1-1.4-1.4-1.5-3.4a34.8,34.8,0,0,0,12.9,4.9,57.3,57.3,0,0,0,11.1,1c8.6,0,18.5-1.9,24.4-6.1m0,12.6a3.1,3.1,0,0,1-.3,1.8c-1.6,3.1-7,5.8-14.8,7.2a61.9,61.9,0,0,1-10.2.7,46,46,0,0,1-6.1-.3,49.9,49.9,0,0,1-8.6-2c-4.4-1.5-7.4-3.9-8.2-5.5a3.1,3.1,0,0,1-.3-1.8c5.4,3.6,14.1,5.9,23.9,5.9h2.4c9.5-.4,17.3-2.6,22.2-6M101.5,91.8l-5.2.2c-14.6,1.5-23.7,7.9-20.7,14.4,2.2,4.8,11.8,8.9,22.3,9.5l4,.2c14.9,0,27.3-5.4,27.3-12.3q0-4.6-6.9-8.1A39,39,0,0,0,112,92.5a74.4,74.4,0,0,0-10.5-.7Zm27.4,16.8c-.1,0-.4.4-.6.8-3,5.8-14,9.5-26.2,9.5a56.4,56.4,0,0,1-11.6-1.2c-7.3-1.4-12.3-4-14.5-7.3-.4-.7-.7-1-.9-1s-.4,1.3-.3,4.5.1,4.1.8,5.3c2.4,4.6,10.9,8.3,21,9.2h0a48.7,48.7,0,0,0,5.4.2c14,0,26.1-4.9,27.2-11.5.3-1.6,0-8.5-.3-8.5Zm0,12.5a4.8,4.8,0,0,0-.9,1.3c-3.1,5.5-14.3,9-26.1,9a61.2,61.2,0,0,1-10.5-.9c-7.5-1.5-13.3-4.4-15.5-7.9a3,3,0,0,0-.9-1c-.2,0-.3,1.4-.2,4.5.1,5.3.2,5.7,2.5,7.9s10.7,6.1,18.6,6.9a56.8,56.8,0,0,0,5.9.3c12.5,0,24-4,26.8-9.6.6-1.3.7-1.8.8-4.8s-.1-5.7-.5-5.7Zm0,12.4a3.8,3.8,0,0,0-.8,1.2c-2.6,5.1-12.1,8.7-24.1,9.2h-2.3c-12,0-22.7-3.7-25.8-9a4,4,0,0,0-.9-1.1c-.2,0-.3,2-.3,4.5,0,4.4.1,4.6.7,5.9s5.2,5.3,9.9,6.9a41.7,41.7,0,0,0,9.2,2.1,38,38,0,0,0,6.5.4,74.7,74.7,0,0,0,10.8-.7c8.8-1.7,14.8-4.8,16.8-8.8.6-1.2.7-1.6.8-5s0-5.6-.5-5.6Z"/></g></svg>