<svg xmlns="http://www.w3.org/2000/svg" xmlns:xlink="http://www.w3.org/1999/xlink" viewBox="0 0 30.2 21"><defs><style>.cls-1{fill:url(#linear-gradient);}.cls-2{fill:url(#linear-gradient-2);}.cls-3{fill:url(#linear-gradient-3);}</style><linearGradient id="linear-gradient" x1="-1384.48" y1="12.05" x2="-1398.77" y2="12.05" gradientTransform="translate(-1368.5 22.5) rotate(180)" gradientUnits="userSpaceOnUse"><stop offset="0" stop-color="#aacf34" stop-opacity="0.8"/><stop offset="0.15" stop-color="#aacf34" stop-opacity="0.88"/><stop offset="0.34" stop-color="#aacf34" stop-opacity="0.95"/><stop offset="0.58" stop-color="#aacf34" stop-opacity="0.99"/><stop offset="1" stop-color="#aacf34"/></linearGradient><linearGradient id="linear-gradient-2" x1="-1376.55" y1="12.05" x2="-1390.83" y2="12.05" gradientTransform="translate(-1368.5 22.5) rotate(180)" gradientUnits="userSpaceOnUse"><stop offset="0" stop-color="#1fa9ce" stop-opacity="0.8"/><stop offset="0.14" stop-color="#1fa9ce" stop-opacity="0.89"/><stop offset="0.31" stop-color="#1fa9ce" stop-opacity="0.95"/><stop offset="0.53" stop-color="#1fa9ce" stop-opacity="0.99"/><stop offset="0.97" stop-color="#1fa9ce"/><stop offset="1" stop-color="#1fa9ce"/></linearGradient><linearGradient id="linear-gradient-3" x1="-1368.59" y1="12.05" x2="-1382.88" y2="12.05" gradientTransform="translate(-1368.5 22.5) rotate(180)" gradientUnits="userSpaceOnUse"><stop offset="0" stop-color="#c62086" stop-opacity="0.8"/><stop offset="0.13" stop-color="#c62086" stop-opacity="0.89"/><stop offset="0.3" stop-color="#c62086" stop-opacity="0.95"/><stop offset="0.52" stop-color="#c62086" stop-opacity="0.99"/><stop offset="1" stop-color="#c62086"/></linearGradient></defs><g id="Layer_2" data-name="Layer 2"><g id="Layer_1-2" data-name="Layer 1"><path class="cls-1" d="M29.7,11.5A1.3,1.3,0,0,0,30,9.7l-.3-.3L23.5,4.6,17.8.2a1.3,1.3,0,0,0-1.7.3,1.9,1.9,0,0,0-.2.7V19.7A1.3,1.3,0,0,0,17.1,21a1.1,1.1,0,0,0,.7-.3l5.7-4.4Z"/><path class="cls-2" d="M21.8,11.5a1.4,1.4,0,0,0,0-2.1L15.5,4.6,9.9.2A1.3,1.3,0,0,0,8.2.5a1.9,1.9,0,0,0-.2.7V19.7A1.3,1.3,0,0,0,9.2,21a1.1,1.1,0,0,0,.7-.3l5.6-4.4Z"/><path class="cls-3" d="M13.8,11.5a1.3,1.3,0,0,0,.3-1.8l-.3-.3L7.6,4.6,1.9.2A1.3,1.3,0,0,0,.2.5a1.9,1.9,0,0,0-.2.7V19.7A1.3,1.3,0,0,0,1.2,21a1.1,1.1,0,0,0,.7-.3l5.7-4.4Z"/></g></g></svg>