<svg id="Layer_1" data-name="Layer 1" xmlns="http://www.w3.org/2000/svg" viewBox="0 0 132.3 162.7"><defs><style>.cls-1,.cls-2,.cls-3,.cls-5{fill:none;}.cls-1{stroke:#aacf34;stroke-width:3px;}.cls-1,.cls-2,.cls-4,.cls-5{stroke-miterlimit:10;}.cls-2{stroke:#1fa9ce;}.cls-2,.cls-3,.cls-5{stroke-width:2px;}.cls-3,.cls-5{stroke:#c62086;}.cls-3{stroke-linecap:round;stroke-linejoin:round;}.cls-4{fill:#1d1d1b;stroke:#fff;}</style></defs><path class="cls-1" d="M58.5,7.3A71.5,71.5,0,0,0,39.9,9.6a40.8,40.8,0,0,0-13.4,5.7A52.8,52.8,0,0,0,10.7,32.1,39.5,39.5,0,0,0,6.6,43.6,74.5,74.5,0,0,0,4.9,56.9a42.5,42.5,0,0,0,6.6,23.2c1.3,2.1,2.6,4.3,4,6.4a60.2,60.2,0,0,1,4.9,9,19.1,19.1,0,0,1,.6,12.7c-.7,2.4-1.4,4.8-2.2,7.2a7,7,0,0,0,.8,6.3,54.5,54.5,0,0,0,4.2,5.6,101.1,101.1,0,0,0,27.7,22.3,70.5,70.5,0,0,0,8.6,3.5,3.4,3.4,0,0,0,4.4-1.4c1.5-2.3,2.9-4.7,4.2-7.1,2.5-4.9,4.9-9.9,7.3-14.8l1.1-2.1c1.7-3.2,4.6-4,7.9-4.3s4.5-.2,6.8-.3l9.3-.9a12.2,12.2,0,0,0,5.1-2.2,7.4,7.4,0,0,0,2.9-8.7l-.9-2.9a3.8,3.8,0,0,1,1.1-4.1,4.6,4.6,0,0,0,1.2-5.8,1.9,1.9,0,0,1,.3-2.4c1.6-1.8,1.5-3.7.7-5.8a6.3,6.3,0,0,1-.1-4.5,3.4,3.4,0,0,1,2.1-1.8l3.7-1.1c3.8-1.4,4.6-4,2.2-7.3a9.1,9.1,0,0,0-1.8-2.1,68.8,68.8,0,0,1-7.8-10,11.7,11.7,0,0,1-1.6-7.3c.2-1.4.3-2.8.5-4.2a28.2,28.2,0,0,0-1.5-10.4A41.7,41.7,0,0,0,95.9,22.7,56.6,56.6,0,0,0,79.8,12.2C72.4,9,64.8,7.2,58.5,7.3Z"/><polygon class="cls-2" points="72.4 34.8 53 25.9 32.1 34.8 23.5 55.4 32.1 75.7 51.2 84.3 72.4 74.8 81.6 53.3 72.4 34.8"/><polyline class="cls-3" points="72.4 74.8 56.7 61.6 51.2 84.3 32.1 75.7 56.7 61.6 37.7 58.8 23.5 55.4 32.1 34.8 37.7 58.8 54.9 45.9 32.1 34.8 53 25.9 54.9 45.9 72.4 34.8 66.3 49 56.7 61.6 81.6 53.3 66.3 49 54.9 45.9 56.7 61.6"/><path class="cls-4" d="M54.4,63.2l2.3,1.4h.1V61.9l-2.4-1.4h0Z"/><path class="cls-4" d="M56.6,61.9v2.6h.1L59,63.2V60.6h0Z"/><path class="cls-4" d="M54.4,60.6h0L56.7,62,59,60.6h0l-2.3-1.4Z"/><path class="cls-5" d="M37.7,58.8,32.1,75.7Z"/><path class="cls-4" d="M29.8,77l2.4,1.3h0V75.6l-2.3-1.4h-.1Z"/><path class="cls-4" d="M32.1,75.6v2.7h.1L34.5,77V74.3h-.1Z"/><path class="cls-4" d="M29.8,74.3h0l2.3,1.3,2.4-1.3h0l-2.3-1.4Z"/><path class="cls-4" d="M35.3,60.1l2.4,1.3h0V58.7l-2.4-1.4h0Z"/><path class="cls-4" d="M37.6,58.7v2.7h.1L40,60.1V57.4h0Z"/><path class="cls-4" d="M35.4,57.4h0l2.3,1.4L40,57.4h0L37.7,56Z"/><path class="cls-4" d="M29.7,36.2l2.4,1.3h0V34.8l-2.4-1.4h0Z"/><path class="cls-4" d="M32,34.8v2.7h.1l2.3-1.3V33.5h0Z"/><path class="cls-4" d="M29.8,33.5h0l2.3,1.4,2.3-1.4h0l-2.3-1.4Z"/><path class="cls-4" d="M51.1,47.9l3.8,2.2H55V45.7l-3.8-2.2h0Z"/><path class="cls-4" d="M54.8,45.7V50h.1l3.8-2.2V43.6h-.1Z"/><path class="cls-4" d="M51.1,43.6h0l3.8,2.2,3.8-2.2h0l-3.8-2.2Z"/><path class="cls-4" d="M70.1,36.1l2.3,1.3h.1V34.7l-2.3-1.3h-.1Z"/><path class="cls-4" d="M72.3,34.7v2.7h0l2.4-1.3V33.4h0Z"/><path class="cls-4" d="M70.1,33.4h0l2.3,1.3,2.3-1.3h0l-2.3-1.3Z"/><path class="cls-4" d="M78.7,54.7,81,56h.1V53.3L78.8,52h-.1Z"/><path class="cls-4" d="M81,53.3V56h0l2.4-1.3V52h-.1Z"/><path class="cls-4" d="M78.7,52h0L81,53.4l2.4-1.3h0L81,50.6Z"/><path class="cls-4" d="M69,76.3l3.5,2h.1v-4l-3.5-2H69Z"/><path class="cls-4" d="M72.4,74.3v4h.1l3.5-2v-4h0Z"/><path class="cls-4" d="M69,72.3h0l3.5,2,3.4-2h0l-3.4-2Z"/></svg>