<svg xmlns="http://www.w3.org/2000/svg" xmlns:xlink="http://www.w3.org/1999/xlink" viewBox="0 0 1275.9 876.2"><defs><style>.cls-1,.cls-2{fill:none;}.cls-1,.cls-2,.cls-4,.cls-5{stroke:#fff;stroke-miterlimit:10;stroke-width:3.92px;}.cls-1{stroke-dasharray:5.89 5.89 5.89 5.89 5.89 5.89;}.cls-1,.cls-2,.cls-3{opacity:0.15;}.cls-4,.cls-6{fill:#2b506a;}.cls-5{fill:#2a506a;}.cls-6{stroke:#94a6b5;}.cls-10,.cls-11,.cls-12,.cls-13,.cls-14,.cls-15,.cls-16,.cls-17,.cls-18,.cls-19,.cls-20,.cls-21,.cls-22,.cls-23,.cls-24,.cls-6,.cls-7,.cls-8,.cls-9{stroke-linecap:round;stroke-linejoin:round;stroke-width:1.73px;}.cls-7,.cls-8,.cls-9{stroke:#c32784;}.cls-7{fill:url(#linear-gradient);}.cls-8{fill:url(#linear-gradient-2);}.cls-9{fill:url(#linear-gradient-3);}.cls-10,.cls-11,.cls-12{stroke:#21a9ce;}.cls-10{fill:url(#linear-gradient-4);}.cls-11{fill:url(#linear-gradient-5);}.cls-12{fill:url(#linear-gradient-6);}.cls-13,.cls-14,.cls-15{stroke:#a8c73b;}.cls-13{fill:url(#linear-gradient-7);}.cls-14{fill:url(#linear-gradient-8);}.cls-15{fill:url(#linear-gradient-9);}.cls-16,.cls-17,.cls-18{stroke:#f5cb32;}.cls-16{fill:url(#linear-gradient-10);}.cls-17{fill:url(#linear-gradient-11);}.cls-18{fill:url(#linear-gradient-12);}.cls-19,.cls-20,.cls-21{stroke:#ef9008;}.cls-19{fill:url(#linear-gradient-13);}.cls-20{fill:url(#linear-gradient-14);}.cls-21{fill:url(#linear-gradient-15);}.cls-22,.cls-23,.cls-24{stroke:#e64427;}.cls-22{fill:url(#linear-gradient-16);}.cls-23{fill:url(#linear-gradient-17);}.cls-24{fill:url(#linear-gradient-18);}</style><linearGradient id="linear-gradient" x1="347.99" y1="568.92" x2="416.01" y2="568.92" gradientUnits="userSpaceOnUse"><stop offset="0" stop-color="#c32784" stop-opacity="0.3"/><stop offset="1" stop-color="#c32784"/></linearGradient><linearGradient id="linear-gradient-2" x1="347.99" y1="540.29" x2="484.04" y2="540.29" xlink:href="#linear-gradient"/><linearGradient id="linear-gradient-3" x1="416.01" y1="568.92" x2="484.04" y2="568.92" xlink:href="#linear-gradient"/><linearGradient id="linear-gradient-4" x1="347.99" y1="543.37" x2="416.01" y2="543.37" gradientUnits="userSpaceOnUse"><stop offset="0" stop-color="#21a9ce" stop-opacity="0.3"/><stop offset="1" stop-color="#21a9ce"/></linearGradient><linearGradient id="linear-gradient-5" x1="347.99" y1="514.74" x2="484.04" y2="514.74" xlink:href="#linear-gradient-4"/><linearGradient id="linear-gradient-6" x1="416.01" y1="543.37" x2="484.04" y2="543.37" xlink:href="#linear-gradient-4"/><linearGradient id="linear-gradient-7" x1="347.99" y1="517.83" x2="416.01" y2="517.83" gradientUnits="userSpaceOnUse"><stop offset="0" stop-color="#a8c73b" stop-opacity="0.3"/><stop offset="1" stop-color="#a8c73b"/></linearGradient><linearGradient id="linear-gradient-8" x1="347.99" y1="489.19" x2="484.04" y2="489.19" xlink:href="#linear-gradient-7"/><linearGradient id="linear-gradient-9" x1="416.01" y1="517.83" x2="484.04" y2="517.83" xlink:href="#linear-gradient-7"/><linearGradient id="linear-gradient-10" x1="347.99" y1="492.28" x2="416.01" y2="492.28" gradientUnits="userSpaceOnUse"><stop offset="0" stop-color="#f5cb32" stop-opacity="0.3"/><stop offset="1" stop-color="#f5cb32"/></linearGradient><linearGradient id="linear-gradient-11" x1="347.99" y1="463.65" x2="484.04" y2="463.65" xlink:href="#linear-gradient-10"/><linearGradient id="linear-gradient-12" x1="416.01" y1="492.28" x2="484.04" y2="492.28" xlink:href="#linear-gradient-10"/><linearGradient id="linear-gradient-13" x1="347.99" y1="466.74" x2="416.01" y2="466.74" gradientUnits="userSpaceOnUse"><stop offset="0" stop-color="#ef9008" stop-opacity="0.3"/><stop offset="1" stop-color="#ef9008"/></linearGradient><linearGradient id="linear-gradient-14" x1="347.99" y1="438.1" x2="484.04" y2="438.1" xlink:href="#linear-gradient-13"/><linearGradient id="linear-gradient-15" x1="416.01" y1="466.74" x2="484.04" y2="466.74" xlink:href="#linear-gradient-13"/><linearGradient id="linear-gradient-16" x1="347.99" y1="441.19" x2="416.01" y2="441.19" gradientUnits="userSpaceOnUse"><stop offset="0" stop-color="#e64427" stop-opacity="0.3"/><stop offset="1" stop-color="#e64427"/></linearGradient><linearGradient id="linear-gradient-17" x1="347.99" y1="412.56" x2="484.04" y2="412.56" xlink:href="#linear-gradient-16"/><linearGradient id="linear-gradient-18" x1="416.01" y1="441.19" x2="484.04" y2="441.19" xlink:href="#linear-gradient-16"/></defs><g id="Layer_2" data-name="Layer 2"><g id="Layer_1-2" data-name="Layer 1"><line class="cls-1" x1="72.3" y1="703.8" x2="1160.6" y2="75.4"/><line class="cls-2" x1="323.8" y1="454.5" x2="1019" y2="53.5"/><line class="cls-2" x1="117" y1="574.5" x2="229.4" y2="509.6"/><line class="cls-1" x1="1" y1="537.5" x2="899.4" y2="18.6"/><line class="cls-2" x1="202" y1="735.5" x2="1164" y2="179.5"/><line class="cls-1" x1="1104" y1="317.5" x2="593.9" y2="613.3"/><line class="cls-1" x1="498.1" y1="667.2" x2="314" y2="773.5"/><line class="cls-2" x1="347" y1="860.5" x2="1239" y2="345.1"/><line class="cls-1" x1="504" y1="874.5" x2="1193.4" y2="475.8"/><line class="cls-1" x1="1167.6" y1="525.3" x2="449.9" y2="110.9"/><line class="cls-1" x1="1003.2" y1="639.8" x2="201.8" y2="177.2"/><line class="cls-2" x1="1184.6" y1="639.8" x2="356.7" y2="161.8"/><line class="cls-2" x1="1067.5" y1="781.7" x2="195" y2="278.5"/><line class="cls-1" x1="899.7" y1="789.8" x2="192" y2="381.5"/><line class="cls-2" x1="780.6" y1="825.6" x2="20" y2="386.5"/><line class="cls-1" x1="219.8" y1="606.2" x2="100.3" y2="537.4"/><line class="cls-1" x1="649" y1="853.5" x2="325.6" y2="667.2"/><line class="cls-2" x1="534.7" y1="874.1" x2="168.5" y2="662.7"/><line class="cls-2" x1="1274.9" y1="272.4" x2="821.8" y2="10.8"/><line class="cls-1" x1="1260.8" y1="159.7" x2="987.2" y2="1.7"/><line class="cls-1" x1="1274.9" y1="377.9" x2="698.9" y2="45.3"/><line class="cls-2" x1="1177" y1="426.5" x2="549" y2="63.5"/><g class="cls-3"><path class="cls-4" d="M331.7,517.1c.3,1.5-1.8,2.7-4.3,2.5l-23.7-1.7-21.4-1.6c-3-.2-4.1-2.3-1.9-3.6l19.7-11.3L319.8,490c2.2-1.3,5.8-.6,6.2,1.1l2.7,12.4Z"/><path class="cls-4" d="M290.1,490.2c.3,1.4-1.9,2.6-4.3,2.4L262,490.9l-21.4-1.6c-3-.2-4.1-2.3-1.9-3.6l19.7-11.3L278.1,463c2.2-1.3,5.8-.6,6.2,1.1l2.7,12.4Z"/><path class="cls-4" d="M246,459.8c.3,1.4-1.9,2.7-4.3,2.5L218,460.6,196.6,459c-3-.2-4.1-2.3-2-3.6L214.4,444l19.7-11.3c2.2-1.3,5.8-.7,6.2,1.1l2.7,12.3Z"/></g><g class="cls-3"><path class="cls-5" d="M340.2,601.3c.3-1.4-1.8-2.7-4.3-2.5l-23.7,1.7-21.4,1.6c-3,.2-4.1,2.3-1.9,3.6l19.7,11.4,19.7,11.4c2.2,1.2,5.8.6,6.2-1.1l2.7-12.4Z"/><path class="cls-5" d="M298.5,628.3c.4-1.4-1.8-2.7-4.3-2.5l-23.7,1.7-21.4,1.6c-3,.2-4.1,2.3-1.9,3.6l19.7,11.4,19.7,11.3c2.2,1.3,5.8.7,6.2-1.1l2.7-12.3Z"/><path class="cls-5" d="M254.5,658.6c.3-1.4-1.9-2.7-4.3-2.5l-23.7,1.8L205,659.4c-2.9.3-4.1,2.4-1.9,3.6l19.7,11.4,19.7,11.4c2.2,1.2,5.9.6,6.3-1.1l2.7-12.4Z"/></g><polygon class="cls-6" points="616.9 417.5 616.9 399.5 684.9 438.8 684.9 456.8 616.9 417.5"/><polygon class="cls-6" points="616.9 399.5 684.9 360.3 752.9 399.5 684.9 438.8 616.9 399.5"/><polygon class="cls-6" points="684.9 438.8 752.9 399.5 752.9 417.5 684.9 456.8 684.9 438.8"/><polygon class="cls-6" points="616.9 392 616.9 374 684.9 413.3 684.9 431.3 616.9 392"/><polygon class="cls-6" points="616.9 374 684.9 334.7 752.9 374 684.9 413.3 616.9 374"/><polygon class="cls-6" points="684.9 413.3 752.9 374 752.9 392 684.9 431.3 684.9 413.3"/><polygon class="cls-6" points="616.9 366.5 616.9 348.5 684.9 387.7 684.9 405.7 616.9 366.5"/><polygon class="cls-6" points="616.9 348.5 684.9 309.2 752.9 348.5 684.9 387.7 616.9 348.5"/><polygon class="cls-6" points="684.9 387.7 752.9 348.5 752.9 366.5 684.9 405.7 684.9 387.7"/><polygon class="cls-6" points="616.9 340.9 616.9 322.9 684.9 362.2 684.9 380.2 616.9 340.9"/><polygon class="cls-6" points="616.9 322.9 684.9 283.6 752.9 322.9 684.9 362.2 616.9 322.9"/><polygon class="cls-6" points="684.9 362.2 752.9 322.9 752.9 340.9 684.9 380.2 684.9 362.2"/><polygon class="cls-6" points="616.9 315.4 616.9 297.4 684.9 336.6 684.9 354.6 616.9 315.4"/><polygon class="cls-6" points="616.9 297.4 684.9 258.1 752.9 297.4 684.9 336.6 616.9 297.4"/><polygon class="cls-6" points="684.9 336.6 752.9 297.4 752.9 315.4 684.9 354.6 684.9 336.6"/><polygon class="cls-6" points="616.9 289.8 616.9 271.8 684.9 311.1 684.9 329.1 616.9 289.8"/><polygon class="cls-6" points="616.9 271.8 684.9 232.5 752.9 271.8 684.9 311.1 616.9 271.8"/><polygon class="cls-6" points="684.9 311.1 752.9 271.8 752.9 289.8 684.9 329.1 684.9 311.1"/><polygon class="cls-6" points="616.9 270.2 616.9 252.2 684.9 291.5 684.9 309.5 616.9 270.2"/><polygon class="cls-6" points="616.9 252.2 684.9 213 752.9 252.2 684.9 291.5 616.9 252.2"/><polygon class="cls-6" points="684.9 291.5 752.9 252.2 752.9 270.2 684.9 309.5 684.9 291.5"/><polygon class="cls-6" points="616.9 244.7 616.9 226.7 684.9 266 684.9 284 616.9 244.7"/><polygon class="cls-6" points="616.9 226.7 684.9 187.4 752.9 226.7 684.9 266 616.9 226.7"/><polygon class="cls-6" points="684.9 266 752.9 226.7 752.9 244.7 684.9 284 684.9 266"/><polygon class="cls-6" points="616.9 219.1 616.9 201.1 684.9 240.4 684.9 258.4 616.9 219.1"/><polygon class="cls-6" points="616.9 201.1 684.9 161.9 752.9 201.1 684.9 240.4 616.9 201.1"/><polygon class="cls-6" points="684.9 240.4 752.9 201.1 752.9 219.1 684.9 258.4 684.9 240.4"/><polygon class="cls-6" points="616.9 193.6 616.9 175.6 684.9 214.9 684.9 232.9 616.9 193.6"/><polygon class="cls-6" points="616.9 175.6 684.9 136.3 752.9 175.6 684.9 214.9 616.9 175.6"/><polygon class="cls-6" points="684.9 214.9 752.9 175.6 752.9 193.6 684.9 232.9 684.9 214.9"/><polygon class="cls-6" points="616.9 168 616.9 150 684.9 189.3 684.9 207.3 616.9 168"/><polygon class="cls-6" points="616.9 150 684.9 110.8 752.9 150 684.9 189.3 616.9 150"/><polygon class="cls-6" points="684.9 189.3 752.9 150 752.9 168 684.9 207.3 684.9 189.3"/><polygon class="cls-6" points="616.9 142.5 616.9 124.5 684.9 163.8 684.9 181.8 616.9 142.5"/><polygon class="cls-6" points="616.9 124.5 684.9 85.2 752.9 124.5 684.9 163.8 616.9 124.5"/><polygon class="cls-6" points="684.9 163.8 752.9 124.5 752.9 142.5 684.9 181.8 684.9 163.8"/><polygon class="cls-6" points="707.2 469.7 707.2 451.7 775.2 490.9 775.2 508.9 707.2 469.7"/><polygon class="cls-6" points="707.2 451.7 775.2 412.4 843.2 451.7 775.2 490.9 707.2 451.7"/><polygon class="cls-6" points="775.2 490.9 843.2 451.7 843.2 469.7 775.2 508.9 775.2 490.9"/><polygon class="cls-6" points="707.2 444.1 707.2 426.1 775.2 465.4 775.2 483.4 707.2 444.1"/><polygon class="cls-6" points="707.2 426.1 775.2 386.8 843.2 426.1 775.2 465.4 707.2 426.1"/><polygon class="cls-6" points="775.2 465.4 843.2 426.1 843.2 444.1 775.2 483.4 775.2 465.4"/><polygon class="cls-6" points="707.2 418.6 707.2 400.6 775.2 439.8 775.2 457.8 707.2 418.6"/><polygon class="cls-6" points="707.2 400.6 775.2 361.3 843.2 400.6 775.2 439.8 707.2 400.6"/><polygon class="cls-6" points="775.2 439.8 843.2 400.6 843.2 418.6 775.2 457.8 775.2 439.8"/><polygon class="cls-6" points="707.2 393 707.2 375 775.2 414.3 775.2 432.3 707.2 393"/><polygon class="cls-6" points="707.2 375 775.2 335.8 843.2 375 775.2 414.3 707.2 375"/><polygon class="cls-6" points="775.2 414.3 843.2 375 843.2 393 775.2 432.3 775.2 414.3"/><polygon class="cls-6" points="707.2 367.5 707.2 349.5 775.2 388.8 775.2 406.7 707.2 367.5"/><polygon class="cls-6" points="707.2 349.5 775.2 310.2 843.2 349.5 775.2 388.8 707.2 349.5"/><polygon class="cls-6" points="775.2 388.8 843.2 349.5 843.2 367.5 775.2 406.7 775.2 388.8"/><polygon class="cls-6" points="707.2 341.9 707.2 323.9 775.2 363.2 775.2 381.2 707.2 341.9"/><polygon class="cls-6" points="707.2 323.9 775.2 284.7 843.2 323.9 775.2 363.2 707.2 323.9"/><polygon class="cls-6" points="775.2 363.2 843.2 323.9 843.2 341.9 775.2 381.2 775.2 363.2"/><polygon class="cls-6" points="707.2 322.3 707.2 304.3 775.2 343.6 775.2 361.6 707.2 322.3"/><polygon class="cls-6" points="707.2 304.3 775.2 265.1 843.2 304.3 775.2 343.6 707.2 304.3"/><polygon class="cls-6" points="775.2 343.6 843.2 304.3 843.2 322.3 775.2 361.6 775.2 343.6"/><polygon class="cls-6" points="707.2 296.8 707.2 278.8 775.2 318.1 775.2 336.1 707.2 296.8"/><polygon class="cls-6" points="707.2 278.8 775.2 239.5 843.2 278.8 775.2 318.1 707.2 278.8"/><polygon class="cls-6" points="775.2 318.1 843.2 278.8 843.2 296.8 775.2 336.1 775.2 318.1"/><polygon class="cls-6" points="707.2 271.3 707.2 253.3 775.2 292.5 775.2 310.5 707.2 271.3"/><polygon class="cls-6" points="707.2 253.3 775.2 214 843.2 253.3 775.2 292.5 707.2 253.3"/><polygon class="cls-6" points="775.2 292.5 843.2 253.3 843.2 271.3 775.2 310.5 775.2 292.5"/><polygon class="cls-6" points="707.2 245.7 707.2 227.7 775.2 267 775.2 285 707.2 245.7"/><polygon class="cls-6" points="707.2 227.7 775.2 188.4 843.2 227.7 775.2 267 707.2 227.7"/><polygon class="cls-6" points="775.2 267 843.2 227.7 843.2 245.7 775.2 285 775.2 267"/><polygon class="cls-6" points="707.2 220.2 707.2 202.2 775.2 241.4 775.2 259.4 707.2 220.2"/><polygon class="cls-6" points="707.2 202.2 775.2 162.9 843.2 202.2 775.2 241.4 707.2 202.2"/><polygon class="cls-6" points="775.2 241.4 843.2 202.2 843.2 220.2 775.2 259.4 775.2 241.4"/><polygon class="cls-6" points="707.2 194.6 707.2 176.6 775.2 215.9 775.2 233.9 707.2 194.6"/><polygon class="cls-6" points="707.2 176.6 775.2 137.3 843.2 176.6 775.2 215.9 707.2 176.6"/><polygon class="cls-6" points="775.2 215.9 843.2 176.6 843.2 194.6 775.2 233.9 775.2 215.9"/><polygon class="cls-6" points="512.5 474.8 512.5 456.8 580.5 496.1 580.5 514.1 512.5 474.8"/><polygon class="cls-6" points="512.5 456.8 580.5 417.5 648.5 456.8 580.5 496.1 512.5 456.8"/><polygon class="cls-6" points="580.5 496.1 648.5 456.8 648.5 474.8 580.5 514.1 580.5 496.1"/><polygon class="cls-6" points="512.5 449.2 512.5 431.2 580.5 470.5 580.5 488.5 512.5 449.2"/><polygon class="cls-6" points="512.5 431.2 580.5 392 648.5 431.2 580.5 470.5 512.5 431.2"/><polygon class="cls-6" points="580.5 470.5 648.5 431.2 648.5 449.2 580.5 488.5 580.5 470.5"/><polygon class="cls-6" points="512.5 423.7 512.5 405.7 580.5 445 580.5 463 512.5 423.7"/><polygon class="cls-6" points="512.5 405.7 580.5 366.4 648.5 405.7 580.5 445 512.5 405.7"/><polygon class="cls-6" points="580.5 445 648.5 405.7 648.5 423.7 580.5 463 580.5 445"/><polygon class="cls-6" points="512.5 398.1 512.5 380.1 580.5 419.4 580.5 437.4 512.5 398.1"/><polygon class="cls-6" points="512.5 380.1 580.5 340.9 648.5 380.1 580.5 419.4 512.5 380.1"/><polygon class="cls-6" points="580.5 419.4 648.5 380.1 648.5 398.1 580.5 437.4 580.5 419.4"/><polygon class="cls-6" points="512.5 372.6 512.5 354.6 580.5 393.9 580.5 411.9 512.5 372.6"/><polygon class="cls-6" points="512.5 354.6 580.5 315.3 648.5 354.6 580.5 393.9 512.5 354.6"/><polygon class="cls-6" points="580.5 393.9 648.5 354.6 648.5 372.6 580.5 411.9 580.5 393.9"/><polygon class="cls-6" points="512.5 347.1 512.5 329.1 580.5 368.3 580.5 386.3 512.5 347.1"/><polygon class="cls-6" points="512.5 329.1 580.5 289.8 648.5 329.1 580.5 368.3 512.5 329.1"/><polygon class="cls-6" points="580.5 368.3 648.5 329.1 648.5 347 580.5 386.3 580.5 368.3"/><polygon class="cls-7" points="348 558.3 348 540.3 416 579.6 416 597.6 348 558.3"/><polygon class="cls-8" points="348 540.3 416 501 484 540.3 416 579.6 348 540.3"/><polygon class="cls-9" points="416 579.6 484 540.3 484 558.3 416 597.6 416 579.6"/><polygon class="cls-10" points="348 532.7 348 514.7 416 554 416 572 348 532.7"/><polygon class="cls-11" points="348 514.7 416 475.5 484 514.7 416 554 348 514.7"/><polygon class="cls-12" points="416 554 484 514.7 484 532.7 416 572 416 554"/><polygon class="cls-13" points="348 507.2 348 489.2 416 528.5 416 546.5 348 507.2"/><polygon class="cls-14" points="348 489.2 416 449.9 484 489.2 416 528.5 348 489.2"/><polygon class="cls-15" points="416 528.5 484 489.2 484 507.2 416 546.5 416 528.5"/><polygon class="cls-16" points="348 481.6 348 463.6 416 502.9 416 520.9 348 481.6"/><polygon class="cls-17" points="348 463.6 416 424.4 484 463.6 416 502.9 348 463.6"/><polygon class="cls-18" points="416 502.9 484 463.6 484 481.6 416 520.9 416 502.9"/><polygon class="cls-19" points="348 456.1 348 438.1 416 477.4 416 495.4 348 456.1"/><polygon class="cls-20" points="348 438.1 416 398.8 484 438.1 416 477.4 348 438.1"/><polygon class="cls-21" points="416 477.4 484 438.1 484 456.1 416 495.4 416 477.4"/><polygon class="cls-22" points="348 430.6 348 412.6 416 451.8 416 469.8 348 430.6"/><polygon class="cls-23" points="348 412.6 416 373.3 484 412.6 416 451.8 348 412.6"/><polygon class="cls-24" points="416 451.8 484 412.6 484 430.6 416 469.8 416 451.8"/><polygon class="cls-6" points="526.5 322.6 526.5 304.7 594.5 343.9 594.5 361.9 526.5 322.6"/><polygon class="cls-6" points="526.5 304.7 594.5 265.4 662.5 304.7 594.5 343.9 526.5 304.7"/><polygon class="cls-6" points="594.5 343.9 662.5 304.7 662.5 322.6 594.5 361.9 594.5 343.9"/><polygon class="cls-6" points="526.5 297.1 526.5 279.1 594.5 318.4 594.5 336.4 526.5 297.1"/><polygon class="cls-6" points="526.5 279.1 594.5 239.8 662.5 279.1 594.5 318.4 526.5 279.1"/><polygon class="cls-6" points="594.5 318.4 662.5 279.1 662.5 297.1 594.5 336.4 594.5 318.4"/><polygon class="cls-6" points="526.5 271.6 526.5 253.6 594.5 292.8 594.5 310.8 526.5 271.6"/><polygon class="cls-6" points="526.5 253.6 594.5 214.3 662.5 253.6 594.5 292.8 526.5 253.6"/><polygon class="cls-6" points="594.5 292.8 662.5 253.6 662.5 271.6 594.5 310.8 594.5 292.8"/><polygon class="cls-6" points="526.5 246 526.5 228 594.5 267.3 594.5 285.3 526.5 246"/><polygon class="cls-6" points="526.5 228 594.5 188.7 662.5 228 594.5 267.3 526.5 228"/><polygon class="cls-6" points="594.5 267.3 662.5 228 662.5 246 594.5 285.3 594.5 267.3"/><polygon class="cls-6" points="526.5 220.5 526.5 202.5 594.5 241.7 594.5 259.7 526.5 220.5"/><polygon class="cls-6" points="526.5 202.5 594.5 163.2 662.5 202.5 594.5 241.7 526.5 202.5"/><polygon class="cls-6" points="594.5 241.7 662.5 202.5 662.5 220.5 594.5 259.7 594.5 241.7"/><polygon class="cls-6" points="526.5 194.9 526.5 176.9 594.5 216.2 594.5 234.2 526.5 194.9"/><polygon class="cls-6" points="526.5 176.9 594.5 137.7 662.5 176.9 594.5 216.2 526.5 176.9"/><polygon class="cls-6" points="594.5 216.2 662.5 176.9 662.5 194.9 594.5 234.2 594.5 216.2"/><polygon class="cls-6" points="616.8 521.9 616.8 503.9 684.8 543.2 684.8 561.2 616.8 521.9"/><polygon class="cls-6" points="616.8 503.9 684.8 464.6 752.9 503.9 684.8 543.2 616.8 503.9"/><polygon class="cls-6" points="684.8 543.2 752.9 503.9 752.9 521.9 684.8 561.2 684.8 543.2"/><polygon class="cls-6" points="616.8 496.4 616.8 478.4 684.8 517.6 684.8 535.6 616.8 496.4"/><polygon class="cls-6" points="616.8 478.4 684.8 439.1 752.9 478.4 684.8 517.6 616.8 478.4"/><polygon class="cls-6" points="684.8 517.6 752.9 478.4 752.9 496.4 684.8 535.6 684.8 517.6"/><polygon class="cls-6" points="616.8 470.8 616.8 452.8 684.8 492.1 684.8 510.1 616.8 470.8"/><polygon class="cls-6" points="616.8 452.8 684.8 413.5 752.9 452.8 684.8 492.1 616.8 452.8"/><polygon class="cls-6" points="684.8 492.1 752.9 452.8 752.9 470.8 684.8 510.1 684.8 492.1"/><polygon class="cls-6" points="616.8 445.3 616.8 427.3 684.8 466.5 684.8 484.5 616.8 445.3"/><polygon class="cls-6" points="616.8 427.3 684.8 388 752.9 427.3 684.8 466.5 616.8 427.3"/><polygon class="cls-6" points="684.8 466.5 752.9 427.3 752.9 445.3 684.8 484.5 684.8 466.5"/><polygon class="cls-6" points="616.8 419.7 616.8 401.7 684.8 441 684.8 459 616.8 419.7"/><polygon class="cls-6" points="616.8 401.7 684.8 362.4 752.9 401.7 684.8 441 616.8 401.7"/><polygon class="cls-6" points="684.8 441 752.9 401.7 752.9 419.7 684.8 459 684.8 441"/><polygon class="cls-6" points="616.8 394.2 616.8 376.2 684.8 415.4 684.8 433.4 616.8 394.2"/><polygon class="cls-6" points="616.8 376.2 684.8 336.9 752.9 376.2 684.8 415.4 616.8 376.2"/><polygon class="cls-6" points="684.8 415.4 752.9 376.2 752.9 394.2 684.8 433.4 684.8 415.4"/><polygon class="cls-6" points="616.8 374.6 616.8 356.6 684.8 395.9 684.8 413.9 616.8 374.6"/><polygon class="cls-6" points="616.8 356.6 684.8 317.3 752.9 356.6 684.8 395.9 616.8 356.6"/><polygon class="cls-6" points="684.8 395.9 752.9 356.6 752.9 374.6 684.8 413.9 684.8 395.9"/><polygon class="cls-6" points="616.8 349 616.8 331 684.8 370.3 684.8 388.3 616.8 349"/><polygon class="cls-6" points="616.8 331 684.8 291.8 752.9 331 684.8 370.3 616.8 331"/><polygon class="cls-6" points="684.8 370.3 752.9 331 752.9 349 684.8 388.3 684.8 370.3"/><polygon class="cls-6" points="616.8 323.5 616.8 305.5 684.8 344.8 684.8 362.8 616.8 323.5"/><polygon class="cls-6" points="616.8 305.5 684.8 266.2 752.9 305.5 684.8 344.8 616.8 305.5"/><polygon class="cls-6" points="684.8 344.8 752.9 305.5 752.9 323.5 684.8 362.8 684.8 344.8"/><polygon class="cls-6" points="616.8 297.9 616.8 280 684.8 319.2 684.8 337.2 616.8 297.9"/><polygon class="cls-6" points="616.8 280 684.8 240.7 752.9 280 684.8 319.2 616.8 280"/><polygon class="cls-6" points="684.8 319.2 752.9 280 752.9 297.9 684.8 337.2 684.8 319.2"/><polygon class="cls-6" points="616.8 272.4 616.8 254.4 684.8 293.7 684.8 311.7 616.8 272.4"/><polygon class="cls-6" points="616.8 254.4 684.8 215.1 752.9 254.4 684.8 293.7 616.8 254.4"/><polygon class="cls-6" points="684.8 293.7 752.9 254.4 752.9 272.4 684.8 311.7 684.8 293.7"/><polygon class="cls-6" points="616.8 246.9 616.8 228.9 684.8 268.1 684.8 286.1 616.8 246.9"/><polygon class="cls-6" points="616.8 228.9 684.8 189.6 752.9 228.9 684.8 268.1 616.8 228.9"/><polygon class="cls-6" points="684.8 268.1 752.9 228.9 752.9 246.9 684.8 286.1 684.8 268.1"/><polygon class="cls-6" points="435.8 374.7 435.8 356.7 503.9 396 503.9 414 435.8 374.7"/><polygon class="cls-6" points="435.8 356.7 503.9 317.4 571.9 356.7 503.9 396 435.8 356.7"/><polygon class="cls-6" points="503.9 396 571.9 356.7 571.9 374.7 503.9 414 503.9 396"/><polygon class="cls-6" points="435.8 349.2 435.8 331.2 503.9 370.4 503.9 388.4 435.8 349.2"/><polygon class="cls-6" points="435.8 331.2 503.9 291.9 571.9 331.2 503.9 370.4 435.8 331.2"/><polygon class="cls-6" points="503.9 370.4 571.9 331.2 571.9 349.2 503.9 388.4 503.9 370.4"/><polygon class="cls-6" points="435.8 323.6 435.8 305.6 503.9 344.9 503.9 362.9 435.8 323.6"/><polygon class="cls-6" points="435.8 305.6 503.9 266.3 571.9 305.6 503.9 344.9 435.8 305.6"/><polygon class="cls-6" points="503.9 344.9 571.9 305.6 571.9 323.6 503.9 362.9 503.9 344.9"/><polygon class="cls-6" points="435.8 298.1 435.8 280.1 503.9 319.3 503.9 337.3 435.8 298.1"/><polygon class="cls-6" points="435.8 280.1 503.9 240.8 571.9 280.1 503.9 319.3 435.8 280.1"/><polygon class="cls-6" points="503.9 319.3 571.9 280.1 571.9 298.1 503.9 337.3 503.9 319.3"/><polygon class="cls-6" points="435.8 272.5 435.8 254.5 503.9 293.8 503.9 311.8 435.8 272.5"/><polygon class="cls-6" points="435.8 254.5 503.9 215.2 571.9 254.5 503.9 293.8 435.8 254.5"/><polygon class="cls-6" points="503.9 293.8 571.9 254.5 571.9 272.5 503.9 311.8 503.9 293.8"/><polygon class="cls-6" points="435.8 247 435.8 229 503.9 268.2 503.9 286.2 435.8 247"/><polygon class="cls-6" points="435.8 229 503.9 189.7 571.9 229 503.9 268.2 435.8 229"/><polygon class="cls-6" points="503.9 268.2 571.9 229 571.9 247 503.9 286.2 503.9 268.2"/><polygon class="cls-6" points="525.9 574 525.9 556 593.9 595.3 593.9 613.3 525.9 574"/><polygon class="cls-6" points="525.9 556 593.9 516.8 662 556 593.9 595.3 525.9 556"/><polygon class="cls-6" points="593.9 595.3 662 556 662 574 593.9 613.3 593.9 595.3"/><polygon class="cls-6" points="525.9 548.5 525.9 530.5 593.9 569.8 593.9 587.8 525.9 548.5"/><polygon class="cls-6" points="525.9 530.5 593.9 491.2 662 530.5 593.9 569.8 525.9 530.5"/><polygon class="cls-6" points="593.9 569.8 662 530.5 662 548.5 593.9 587.8 593.9 569.8"/><polygon class="cls-6" points="525.9 522.9 525.9 505 593.9 544.2 593.9 562.2 525.9 522.9"/><polygon class="cls-6" points="525.9 505 593.9 465.7 662 505 593.9 544.2 525.9 505"/><polygon class="cls-6" points="593.9 544.2 662 505 662 522.9 593.9 562.2 593.9 544.2"/><polygon class="cls-6" points="525.9 497.4 525.9 479.4 593.9 518.7 593.9 536.7 525.9 497.4"/><polygon class="cls-6" points="525.9 479.4 593.9 440.1 662 479.4 593.9 518.7 525.9 479.4"/><polygon class="cls-6" points="593.9 518.7 662 479.4 662 497.4 593.9 536.7 593.9 518.7"/><polygon class="cls-6" points="525.9 471.9 525.9 453.9 593.9 493.1 593.9 511.1 525.9 471.9"/><polygon class="cls-6" points="525.9 453.9 593.9 414.6 662 453.9 593.9 493.1 525.9 453.9"/><polygon class="cls-6" points="593.9 493.1 662 453.9 662 471.9 593.9 511.1 593.9 493.1"/><polygon class="cls-6" points="525.9 446.3 525.9 428.3 593.9 467.6 593.9 485.6 525.9 446.3"/><polygon class="cls-6" points="525.9 428.3 593.9 389 662 428.3 593.9 467.6 525.9 428.3"/><polygon class="cls-6" points="593.9 467.6 662 428.3 662 446.3 593.9 485.6 593.9 467.6"/><polygon class="cls-6" points="525.9 426.7 525.9 408.7 593.9 448 593.9 466 525.9 426.7"/><polygon class="cls-6" points="525.9 408.7 593.9 369.5 662 408.7 593.9 448 525.9 408.7"/><polygon class="cls-6" points="593.9 448 662 408.7 662 426.7 593.9 466 593.9 448"/><polygon class="cls-6" points="525.9 401.2 525.9 383.2 593.9 422.5 593.9 440.4 525.9 401.2"/><polygon class="cls-6" points="525.9 383.2 593.9 343.9 662 383.2 593.9 422.5 525.9 383.2"/><polygon class="cls-6" points="593.9 422.5 662 383.2 662 401.2 593.9 440.4 593.9 422.5"/><polygon class="cls-6" points="525.9 375.6 525.9 357.6 593.9 396.9 593.9 414.9 525.9 375.6"/><polygon class="cls-6" points="525.9 357.6 593.9 318.4 662 357.6 593.9 396.9 525.9 357.6"/><polygon class="cls-6" points="593.9 396.9 662 357.6 662 375.6 593.9 414.9 593.9 396.9"/><polygon class="cls-6" points="525.9 350.1 525.9 332.1 593.9 371.4 593.9 389.4 525.9 350.1"/><polygon class="cls-6" points="525.9 332.1 593.9 292.8 662 332.1 593.9 371.4 525.9 332.1"/><polygon class="cls-6" points="593.9 371.4 662 332.1 662 350.1 593.9 389.4 593.9 371.4"/><polygon class="cls-6" points="525.9 324.5 525.9 306.5 593.9 345.8 593.9 363.8 525.9 324.5"/><polygon class="cls-6" points="525.9 306.5 593.9 267.3 662 306.5 593.9 345.8 525.9 306.5"/><polygon class="cls-6" points="593.9 345.8 662 306.5 662 324.5 593.9 363.8 593.9 345.8"/><polygon class="cls-6" points="525.9 299 525.9 281 593.9 320.3 593.9 338.3 525.9 299"/><polygon class="cls-6" points="525.9 281 593.9 241.7 662 281 593.9 320.3 525.9 281"/><polygon class="cls-6" points="593.9 320.3 662 281 662 299 593.9 338.3 593.9 320.3"/><polygon class="cls-6" points="797.4 523.8 797.4 279.8 865.4 319.1 865.4 563 797.4 523.8"/><polygon class="cls-6" points="797.4 279.6 865.4 240.3 933.4 279.6 865.4 318.8 797.4 279.6"/><polygon class="cls-6" points="865.4 319.1 933.4 279.8 933.4 523.8 865.4 563 865.4 319.1"/><polygon class="cls-6" points="797.6 272.2 797.6 254.2 865.6 293.5 865.6 311.5 797.6 272.2"/><polygon class="cls-6" points="797.6 254.2 865.6 215 933.6 254.2 865.6 293.5 797.6 254.2"/><polygon class="cls-6" points="865.6 293.5 933.6 254.2 933.6 272.2 865.6 311.5 865.6 293.5"/><polygon class="cls-6" points="797.6 246.7 797.6 228.7 865.6 268 865.6 286 797.6 246.7"/><polygon class="cls-6" points="797.6 228.7 865.6 189.4 933.6 228.7 865.6 268 797.6 228.7"/><polygon class="cls-6" points="865.6 268 933.6 228.7 933.6 246.7 865.6 286 865.6 268"/><polygon class="cls-6" points="706.9 574.1 706.9 357.8 774.9 397.1 774.9 613.4 706.9 574.1"/><polygon class="cls-6" points="706.9 357.6 774.9 318.3 842.9 357.6 774.9 396.9 706.9 357.6"/><polygon class="cls-6" points="774.9 397.1 842.9 357.8 842.9 574.1 774.9 613.4 774.9 397.1"/><polygon class="cls-6" points="706.9 350.2 706.9 332.2 774.9 371.4 774.9 389.4 706.9 350.2"/><polygon class="cls-6" points="706.9 332.2 774.9 292.9 842.9 332.2 774.9 371.4 706.9 332.2"/><polygon class="cls-6" points="774.9 371.4 842.9 332.2 842.9 350.2 774.9 389.4 774.9 371.4"/><polygon class="cls-6" points="706.9 324.6 706.9 306.6 774.9 345.9 774.9 363.9 706.9 324.6"/><polygon class="cls-6" points="706.9 306.6 774.9 267.3 842.9 306.6 774.9 345.9 706.9 306.6"/><polygon class="cls-6" points="774.9 345.9 842.9 306.6 842.9 324.6 774.9 363.9 774.9 345.9"/><polygon class="cls-6" points="706.9 299.1 706.9 281.1 774.9 320.3 774.9 338.3 706.9 299.1"/><polygon class="cls-6" points="706.9 281.1 774.9 241.8 842.9 281.1 774.9 320.3 706.9 281.1"/><polygon class="cls-6" points="774.9 320.3 842.9 281.1 842.9 299.1 774.9 338.3 774.9 320.3"/><g class="cls-3"><path class="cls-4" d="M484.1,603.6c-.3-1.3,1.7-2.5,4.1-2.4l22.5,1.7,20.4,1.5c2.8.2,3.9,2.2,1.8,3.4l-18.8,10.8-18.7,10.8c-2.1,1.2-5.5.6-5.9-1l-2.6-11.8Z"/><path class="cls-4" d="M535,632.4c-.3-1.3,1.8-2.5,4.1-2.3l22.5,1.6,20.4,1.5c2.8.2,3.9,2.2,1.8,3.4l-18.7,10.8-18.8,10.9c-2,1.2-5.5.5-5.9-1.1l-2.5-11.8Z"/><path class="cls-4" d="M580.6,659.2c-.3-1.3,1.7-2.5,4-2.3l22.6,1.6,20.3,1.5c2.9.2,3.9,2.2,1.9,3.4l-18.8,10.8-18.7,10.9c-2.1,1.2-5.5.5-5.9-1.1l-2.6-11.8Z"/></g><polygon class="cls-6" points="525.9 574 525.9 556 593.9 595.3 593.9 613.3 525.9 574"/><polygon class="cls-6" points="525.9 556 593.9 516.8 662 556 593.9 595.3 525.9 556"/><polygon class="cls-6" points="593.9 595.3 662 556 662 574 593.9 613.3 593.9 595.3"/><polygon class="cls-6" points="525.9 548.5 525.9 530.5 593.9 569.8 593.9 587.8 525.9 548.5"/><polygon class="cls-6" points="525.9 530.5 593.9 491.2 662 530.5 593.9 569.8 525.9 530.5"/><polygon class="cls-6" points="593.9 569.8 662 530.5 662 548.5 593.9 587.8 593.9 569.8"/><polygon class="cls-6" points="525.9 522.9 525.9 505 593.9 544.2 593.9 562.2 525.9 522.9"/><polygon class="cls-6" points="525.9 505 593.9 465.7 662 505 593.9 544.2 525.9 505"/><polygon class="cls-6" points="593.9 544.2 662 505 662 522.9 593.9 562.2 593.9 544.2"/><polygon class="cls-6" points="525.9 497.4 525.9 479.4 593.9 518.7 593.9 536.7 525.9 497.4"/><polygon class="cls-6" points="525.9 479.4 593.9 440.1 662 479.4 593.9 518.7 525.9 479.4"/><polygon class="cls-6" points="593.9 518.7 662 479.4 662 497.4 593.9 536.7 593.9 518.7"/><polygon class="cls-6" points="525.9 471.9 525.9 453.9 593.9 493.1 593.9 511.1 525.9 471.9"/><polygon class="cls-6" points="525.9 453.9 593.9 414.6 662 453.9 593.9 493.1 525.9 453.9"/><polygon class="cls-6" points="593.9 493.1 662 453.9 662 471.9 593.9 511.1 593.9 493.1"/><polygon class="cls-6" points="525.9 446.3 525.9 428.3 593.9 467.6 593.9 485.6 525.9 446.3"/><polygon class="cls-6" points="525.9 428.3 593.9 389 662 428.3 593.9 467.6 525.9 428.3"/><polygon class="cls-6" points="593.9 467.6 662 428.3 662 446.3 593.9 485.6 593.9 467.6"/><polygon class="cls-6" points="525.9 426.7 525.9 408.7 593.9 448 593.9 466 525.9 426.7"/><polygon class="cls-6" points="525.9 408.7 593.9 369.5 662 408.7 593.9 448 525.9 408.7"/><polygon class="cls-6" points="593.9 448 662 408.7 662 426.7 593.9 466 593.9 448"/><polygon class="cls-6" points="525.9 401.2 525.9 383.2 593.9 422.5 593.9 440.4 525.9 401.2"/><polygon class="cls-6" points="525.9 383.2 593.9 343.9 662 383.2 593.9 422.5 525.9 383.2"/><polygon class="cls-6" points="593.9 422.5 662 383.2 662 401.2 593.9 440.4 593.9 422.5"/><polygon class="cls-6" points="525.9 375.6 525.9 357.6 593.9 396.9 593.9 414.9 525.9 375.6"/><polygon class="cls-6" points="525.9 357.6 593.9 318.4 662 357.6 593.9 396.9 525.9 357.6"/><polygon class="cls-6" points="593.9 396.9 662 357.6 662 375.6 593.9 414.9 593.9 396.9"/><polygon class="cls-6" points="525.9 350.1 525.9 332.1 593.9 371.4 593.9 389.4 525.9 350.1"/><polygon class="cls-6" points="525.9 332.1 593.9 292.8 662 332.1 593.9 371.4 525.9 332.1"/><polygon class="cls-6" points="593.9 371.4 662 332.1 662 350.1 593.9 389.4 593.9 371.4"/><polygon class="cls-6" points="525.9 324.5 525.9 306.5 593.9 345.8 593.9 363.8 525.9 324.5"/><polygon class="cls-6" points="525.9 306.5 593.9 267.3 662 306.5 593.9 345.8 525.9 306.5"/><polygon class="cls-6" points="593.9 345.8 662 306.5 662 324.5 593.9 363.8 593.9 345.8"/><polygon class="cls-6" points="525.9 299 525.9 281 593.9 320.3 593.9 338.3 525.9 299"/><polygon class="cls-6" points="525.9 281 593.9 241.7 662 281 593.9 320.3 525.9 281"/><polygon class="cls-6" points="593.9 320.3 662 281 662 299 593.9 338.3 593.9 320.3"/><polygon class="cls-6" points="616.7 626.5 616.7 488.2 684.7 527.5 684.7 665.7 616.7 626.5"/><polygon class="cls-6" points="616.7 487.5 684.7 448.2 752.7 487.5 684.7 526.8 616.7 487.5"/><polygon class="cls-6" points="684.7 527.5 752.7 488.2 752.7 626.5 684.7 665.7 684.7 527.5"/><polygon class="cls-6" points="616.7 479.2 616.7 461.2 684.7 500.4 684.7 518.4 616.7 479.2"/><polygon class="cls-6" points="616.7 461.2 684.7 421.9 752.7 461.2 684.7 500.4 616.7 461.2"/><polygon class="cls-6" points="684.7 500.4 752.7 461.2 752.7 479.2 684.7 518.4 684.7 500.4"/><polygon class="cls-6" points="616.7 453.6 616.7 435.6 684.7 474.9 684.7 492.9 616.7 453.6"/><polygon class="cls-6" points="616.7 435.6 684.7 396.3 752.7 435.6 684.7 474.9 616.7 435.6"/><polygon class="cls-6" points="684.7 474.9 752.7 435.6 752.7 453.6 684.7 492.9 684.7 474.9"/><polygon class="cls-6" points="616.7 428.1 616.7 410.1 684.7 449.3 684.7 467.3 616.7 428.1"/><polygon class="cls-6" points="616.7 410.1 684.7 370.8 752.7 410.1 684.7 449.3 616.7 410.1"/><polygon class="cls-6" points="684.7 449.3 752.7 410.1 752.7 428.1 684.7 467.3 684.7 449.3"/><polygon class="cls-6" points="616.7 402.5 616.7 384.5 684.7 423.8 684.7 441.8 616.7 402.5"/><polygon class="cls-6" points="616.7 384.5 684.7 345.3 752.7 384.5 684.7 423.8 616.7 384.5"/><polygon class="cls-6" points="684.7 423.8 752.7 384.5 752.7 402.5 684.7 441.8 684.7 423.8"/><polygon class="cls-6" points="616.7 377 616.7 359 684.7 398.3 684.7 416.2 616.7 377"/><polygon class="cls-6" points="616.7 359 684.7 319.7 752.7 359 684.7 398.3 616.7 359"/><polygon class="cls-6" points="684.7 398.3 752.7 359 752.7 377 684.7 416.2 684.7 398.3"/><polygon class="cls-6" points="616.7 351.4 616.7 333.4 684.7 372.7 684.7 390.7 616.7 351.4"/><polygon class="cls-6" points="616.7 333.4 684.7 294.2 752.7 333.4 684.7 372.7 616.7 333.4"/><polygon class="cls-6" points="684.7 372.7 752.7 333.4 752.7 351.4 684.7 390.7 684.7 372.7"/></g></g></svg>