<svg id="Layer_1" data-name="Layer 1" xmlns="http://www.w3.org/2000/svg" xmlns:xlink="http://www.w3.org/1999/xlink" viewBox="0 0 673 346.4"><defs><style>.cls-1,.cls-10,.cls-11,.cls-12,.cls-13,.cls-14,.cls-15,.cls-16,.cls-17,.cls-18,.cls-19,.cls-2,.cls-20,.cls-21,.cls-22,.cls-23,.cls-24,.cls-25,.cls-3,.cls-4,.cls-5,.cls-6,.cls-7,.cls-8,.cls-9{fill:none;stroke-miterlimit:10;}.cls-1,.cls-20,.cls-21,.cls-24,.cls-25{stroke-width:1.83px;}.cls-1{stroke:url(#linear-gradient);}.cls-10,.cls-11,.cls-12,.cls-13,.cls-2,.cls-3,.cls-4,.cls-5,.cls-6,.cls-7,.cls-8,.cls-9{stroke-width:0.31px;}.cls-2{stroke:url(#linear-gradient-2);}.cls-3{stroke:url(#linear-gradient-3);}.cls-4{stroke:url(#New_Gradient_Swatch_2);}.cls-5{stroke:url(#New_Gradient_Swatch_1);}.cls-6{stroke:url(#linear-gradient-4);}.cls-7{stroke:url(#linear-gradient-5);}.cls-8{stroke:url(#linear-gradient-6);}.cls-9{stroke:url(#linear-gradient-7);}.cls-10{stroke:url(#New_Gradient_Swatch_2-2);}.cls-11{stroke:url(#New_Gradient_Swatch_1-2);}.cls-12{stroke:url(#linear-gradient-8);}.cls-13{stroke:url(#linear-gradient-9);}.cls-14,.cls-15{stroke-width:0.61px;}.cls-14{stroke:url(#linear-gradient-10);}.cls-15{stroke:url(#linear-gradient-11);}.cls-16,.cls-17{stroke-width:0.92px;}.cls-16{stroke:url(#New_Gradient_Swatch_2-3);}.cls-17{stroke:url(#New_Gradient_Swatch_1-3);}.cls-18,.cls-19{stroke-width:1.22px;}.cls-18{stroke:url(#linear-gradient-12);}.cls-19{stroke:url(#linear-gradient-13);}.cls-20{stroke:url(#linear-gradient-14);}.cls-21{stroke:url(#linear-gradient-15);}.cls-22,.cls-23{stroke-width:2.44px;}.cls-22{stroke:url(#New_Gradient_Swatch_2-4);}.cls-23{stroke:url(#New_Gradient_Swatch_1-4);}.cls-24{stroke:#fff;}.cls-25{stroke:#f7cd33;}</style><linearGradient id="linear-gradient" x1="7.98" y1="248.36" x2="653.76" y2="235.93" gradientUnits="userSpaceOnUse"><stop offset="0" stop-color="#f7cd33" stop-opacity="0.8"/><stop offset="0.05" stop-color="#f7cd33" stop-opacity="0.85"/><stop offset="0.17" stop-color="#f7cd33" stop-opacity="0.92"/><stop offset="0.31" stop-color="#f7cd33" stop-opacity="0.96"/><stop offset="0.5" stop-color="#f7cd33" stop-opacity="0.99"/><stop offset="1" stop-color="#f7cd33"/></linearGradient><linearGradient id="linear-gradient-2" x1="50.12" y1="329.29" x2="580.44" y2="329.29" gradientTransform="matrix(1, -0.02, 0.02, 1, -6.07, -80.35)" xlink:href="#linear-gradient"/><linearGradient id="linear-gradient-3" x1="356.09" y1="-28356.44" x2="1051.03" y2="-28356.44" gradientTransform="matrix(0.77, 0, -0.03, 0, -1106.75, 356.45)" gradientUnits="userSpaceOnUse"><stop offset="0" stop-color="#aacf34" stop-opacity="0.8"/><stop offset="0.15" stop-color="#aacf34" stop-opacity="0.88"/><stop offset="0.34" stop-color="#aacf34" stop-opacity="0.95"/><stop offset="0.58" stop-color="#aacf34" stop-opacity="0.99"/><stop offset="1" stop-color="#aacf34"/></linearGradient><linearGradient id="New_Gradient_Swatch_2" x1="42.31" y1="329.29" x2="586.66" y2="329.29" gradientTransform="matrix(1, -0.02, 0.02, 1, -6.07, -80.35)" gradientUnits="userSpaceOnUse"><stop offset="0" stop-color="#1fa9ce" stop-opacity="0.8"/><stop offset="0.14" stop-color="#1fa9ce" stop-opacity="0.89"/><stop offset="0.31" stop-color="#1fa9ce" stop-opacity="0.95"/><stop offset="0.53" stop-color="#1fa9ce" stop-opacity="0.99"/><stop offset="0.97" stop-color="#1fa9ce"/><stop offset="1" stop-color="#1fa9ce"/></linearGradient><linearGradient id="New_Gradient_Swatch_1" x1="741.54" y1="-16190.8" x2="1369.81" y2="-16190.8" gradientTransform="matrix(0.79, 0, -0.03, 0.01, -1005.85, 355.15)" gradientUnits="userSpaceOnUse"><stop offset="0" stop-color="#c62086" stop-opacity="0.8"/><stop offset="0.13" stop-color="#c62086" stop-opacity="0.89"/><stop offset="0.3" stop-color="#c62086" stop-opacity="0.95"/><stop offset="0.52" stop-color="#c62086" stop-opacity="0.99"/><stop offset="1" stop-color="#c62086"/></linearGradient><linearGradient id="linear-gradient-4" x1="92.59" y1="329.27" x2="593.04" y2="329.27" gradientTransform="matrix(1, -0.02, 0.02, 1, -6.07, -80.35)" gradientUnits="userSpaceOnUse"><stop offset="0" stop-color="#fe3e16" stop-opacity="0.8"/><stop offset="0.26" stop-color="#fe3e16" stop-opacity="0.87"/><stop offset="0.72" stop-color="#fe3e16" stop-opacity="0.96"/><stop offset="1" stop-color="#fe3e16"/></linearGradient><linearGradient id="linear-gradient-5" x1="856.62" y1="-9143.08" x2="1484.9" y2="-9143.08" gradientTransform="matrix(0.81, 0, -0.03, 0.01, -902.39, 352.54)" gradientUnits="userSpaceOnUse"><stop offset="0" stop-color="#f39200" stop-opacity="0.8"/><stop offset="0.05" stop-color="#f39200" stop-opacity="0.83"/><stop offset="0.18" stop-color="#f39200" stop-opacity="0.91"/><stop offset="0.34" stop-color="#f39200" stop-opacity="0.96"/><stop offset="0.55" stop-color="#f39200" stop-opacity="0.99"/><stop offset="1" stop-color="#f39200"/></linearGradient><linearGradient id="linear-gradient-6" x1="85.82" y1="328.78" x2="599.58" y2="328.78" gradientTransform="matrix(1, -0.02, 0.02, 1, -6.07, -80.35)" xlink:href="#linear-gradient"/><linearGradient id="linear-gradient-7" x1="877.83" y1="-5064.23" x2="1483.71" y2="-5064.23" gradientTransform="matrix(0.84, 0, -0.03, 0.02, -796.39, 347.66)" xlink:href="#linear-gradient-3"/><linearGradient id="New_Gradient_Swatch_2-2" x1="95.87" y1="328.19" x2="606.3" y2="328.19" xlink:href="#New_Gradient_Swatch_2"/><linearGradient id="New_Gradient_Swatch_1-2" x1="96.53" y1="327.63" x2="609.72" y2="327.63" gradientTransform="matrix(1, -0.02, 0.02, 1, -6.07, -80.35)" xlink:href="#New_Gradient_Swatch_1"/><linearGradient id="linear-gradient-8" x1="93.71" y1="326.88" x2="613.18" y2="326.88" xlink:href="#linear-gradient-4"/><linearGradient id="linear-gradient-9" x1="91.65" y1="325.9" x2="616.69" y2="325.9" gradientTransform="matrix(1, -0.02, 0.02, 1, -6.07, -80.35)" xlink:href="#linear-gradient-5"/><linearGradient id="linear-gradient-10" x1="89.47" y1="324.65" x2="620.29" y2="324.65" gradientTransform="matrix(1, -0.02, 0.02, 1, -6.07, -80.35)" xlink:href="#linear-gradient"/><linearGradient id="linear-gradient-11" x1="87.4" y1="322.97" x2="623.89" y2="322.97" gradientTransform="matrix(1, -0.02, 0.02, 1, -6.07, -80.35)" xlink:href="#linear-gradient-3"/><linearGradient id="New_Gradient_Swatch_2-3" x1="85.36" y1="319.61" x2="628.82" y2="319.61" xlink:href="#New_Gradient_Swatch_2"/><linearGradient id="New_Gradient_Swatch_1-3" x1="83.65" y1="315.05" x2="633.86" y2="315.05" gradientTransform="matrix(1, -0.02, 0.02, 1, -6.07, -80.35)" xlink:href="#New_Gradient_Swatch_1"/><linearGradient id="linear-gradient-12" x1="84.22" y1="309.18" x2="638.2" y2="309.18" xlink:href="#linear-gradient-4"/><linearGradient id="linear-gradient-13" x1="80.16" y1="301.61" x2="642.67" y2="301.61" gradientTransform="matrix(1, -0.02, 0.02, 1, -6.07, -80.35)" xlink:href="#linear-gradient-5"/><linearGradient id="linear-gradient-14" x1="81.19" y1="291.6" x2="647.32" y2="291.6" gradientTransform="matrix(1, -0.02, 0.02, 1, -6.07, -80.35)" xlink:href="#linear-gradient"/><linearGradient id="linear-gradient-15" x1="79.89" y1="278.48" x2="651.5" y2="278.48" gradientTransform="matrix(1, -0.02, 0.02, 1, -6.07, -80.35)" xlink:href="#linear-gradient-3"/><linearGradient id="New_Gradient_Swatch_2-4" x1="77.3" y1="261.17" x2="656.14" y2="261.17" xlink:href="#New_Gradient_Swatch_2"/><linearGradient id="New_Gradient_Swatch_1-4" x1="77.26" y1="242.62" x2="661.58" y2="242.62" gradientTransform="matrix(1, -0.02, 0.02, 1, -6.07, -80.35)" xlink:href="#New_Gradient_Swatch_1"/></defs><path class="cls-1" d="M7.9,242.1h646"/><polyline class="cls-2" points="50.3 241.5 105.7 241.3 113.9 242 162.6 241.5 179.5 242.3 243.7 242 252.8 242.6 325.8 242.4 366 243.1 458.7 242.8 464.1 243.7 531.4 243.6 527 244 561.3 243.7 580.7 244.1"/><polyline class="cls-3" points="46.4 241.6 102.5 241.2 110.8 242.1 160.1 241.3 177.3 242.3 242.4 241.9 251.6 242.7 325.5 242.3 366.3 243.1 460.1 242.5 465.7 243.8 533.8 243.5 529.4 244.1 564.1 243.6 583.8 244.1"/><polyline class="cls-4" points="586.9 244.1 567 243.4 531.8 244.1 536.3 243.3 467.2 243.8 461.6 242.2 366.5 243.1 325.3 242.1 250.3 242.7 241 241.7 175.1 242.4 157.7 241.1 107.8 242.2 99.3 241 42.5 241.6"/><polyline class="cls-5" points="96.1 240.8 104.6 242.3 155.2 240.8 172.9 242.5 239.6 241.5 249.1 242.8 325 241.8 366.8 243.2 463.1 241.8 468.8 243.9 538.8 243.2 534.2 244.2 569.9 243.2 590.1 244"/><polyline class="cls-6" points="92.8 240.5 101.5 242.4 152.7 240.4 170.6 242.6 238.2 241.2 247.8 242.9 324.7 241.5 367.1 243.2 464.6 241.3 470.5 244.1 541.3 242.9 536.7 244.3 572.8 243 593.3 244"/><polyline class="cls-7" points="89.4 240.1 98.3 242.7 150.1 239.9 168.3 242.7 236.7 240.8 246.5 243.1 324.4 241.1 367.4 243.2 466.1 240.5 472.1 244.2 543.8 242.6 539.2 244.4 575.8 242.6 596.6 244"/><polyline class="cls-8" points="86 239.6 95.1 242.9 147.4 239.2 166 242.9 235.3 240.3 245.3 243.3 324 240.5 367.7 243.3 467.6 239.6 473.8 244.4 546.4 242.2 541.8 244.6 578.7 242.2 599.9 243.9"/><polyline class="cls-9" points="95.5 243 144.8 238.3 163.7 243.2 233.8 239.6 244 243.5 323.7 239.8 368 243.4 469.1 238.4 475.5 244.7 549 241.7 544.4 244.8 581.8 241.5 603.2 243.8"/><polyline class="cls-10" points="96.1 242.9 142 237.2 161.3 243.6 232.2 238.7 242.6 243.9 323.3 238.9 368.3 243.5 470.6 236.7 477.2 245 551.6 240.9 547 245.1 584.8 240.7 606.6 243.7"/><polyline class="cls-11" points="96.7 242.6 139.2 235.7 158.9 244 230.6 237.6 241.3 244.3 322.9 237.6 368.6 243.6 472 234.6 479 245.5 554.2 240 549.7 245.4 587.8 239.7 610 243.5"/><polyline class="cls-12" points="93.9 242.8 95 242.6 95.6 242.5 136.3 233.8 156.5 244.7 229 236.1 240 244.9 322.5 236 368.9 243.8 473.4 231.8 480.8 246 556.9 238.7 552.4 245.9 590.9 238.3 613.4 243.2"/><polyline class="cls-13" points="91.9 242.8 92.3 242.7 133.4 231.2 154.1 245.5 227.3 234.1 238.7 245.7 322 233.9 369.2 244 474.8 228.1 482.6 246.8 559.5 237.1 555.2 246.5 594 236.4 616.9 242.9"/><polyline class="cls-14" points="89.7 242.8 90.5 242.5 130.3 227.8 151.7 246.6 225.5 231.6 237.4 246.7 321.4 231 369.5 244.3 476.1 223.2 484.5 247.8 562.1 234.9 558 247.3 597 234 620.4 242.5"/><polyline class="cls-15" points="87.7 242.5 88.4 242.1 127.1 223.4 149.2 248 223.6 228.2 236.1 248.1 320.8 227.3 369.9 244.7 477.3 216.8 486.5 249.1 564.7 232.1 560.9 248.3 600 230.8 624 241.9"/><polyline class="cls-16" points="85.8 242.6 124.7 219.7 146.8 249.9 221.7 223.7 234.8 249.8 320.1 222.5 370.2 245.2 478.3 208.4 488.5 250.8 567.3 228.3 563.8 249.6 603 226.6 628.8 241.9"/><polyline class="cls-17" points="633.8 242.1 605.9 221 566.8 251.4 569.8 223.4 490.5 253 479.1 197.4 370.6 245.9 319.2 216.1 233.5 252.2 219.5 217.9 144.4 252.4 122.2 215.1 84.1 242.6"/><polyline class="cls-18" points="84.8 241.5 120.4 211.1 142 255.7 217.2 210.3 232.3 255.2 318.1 207.7 371 246.8 479.6 182.9 492.7 256 572.2 216.9 569.9 253.7 608.8 213.8 638 241.9"/><polyline class="cls-19" points="80.8 242.1 117.2 201 139.7 260 214.7 200.2 231.1 259.2 316.8 196.7 371.5 248 479.8 163.9 494.9 259.8 574.4 208.3 573.1 256.7 611.4 204.2 642.4 241.9"/><polyline class="cls-20" points="82 242.3 118.7 205.8 137.5 265.6 211.8 187 230.1 264.5 315.2 182.3 371.9 249.5 479.4 138.9 497.3 264.9 576.5 197.1 576.5 260.7 613.8 191.6 646.8 241.9"/><polyline class="cls-21" points="80.8 242.1 115.7 196.3 135.4 273 208.6 169.6 229.1 271.5 313.2 163.3 372.4 251.6 478.4 106 499.9 271.6 578.3 182.4 579.9 265.9 615.9 175.1 650.9 241.6"/><polyline class="cls-22" points="78.5 242.6 114 190.6 133.5 282.8 204.9 146.9 228.4 280.6 310.7 138.4 373 254.2 476.5 62.8 502.6 280.3 579.7 163.1 583.6 272.7 617.7 153.4 655.3 241.6"/><polyline class="cls-23" points="78.5 242.6 113.4 182.7 133.8 306.6 200.5 116.9 227.9 292.6 307.4 105.6 373.7 257.7 473.4 6.2 505.7 291.8 580.6 137.6 587.5 281.7 618.8 125 660.7 242.6"/><path class="cls-24" d="M-139.7,242.1H139.7"/><path class="cls-25" d="M616.6,242.1h95.7"/></svg>