<svg id="Layer_1" data-name="Layer 1" xmlns="http://www.w3.org/2000/svg" xmlns:xlink="http://www.w3.org/1999/xlink" viewBox="0 0 1091.3 323.5"><defs><style>.cls-1,.cls-10,.cls-11,.cls-12,.cls-13,.cls-14,.cls-15,.cls-16,.cls-17,.cls-18,.cls-19,.cls-2,.cls-20,.cls-21,.cls-22,.cls-23,.cls-24,.cls-3,.cls-4,.cls-5,.cls-6,.cls-7,.cls-8,.cls-9{fill:none;stroke-miterlimit:10;}.cls-1,.cls-20,.cls-21,.cls-24{stroke-width:1.83px;}.cls-1{stroke:url(#linear-gradient);}.cls-10,.cls-11,.cls-12,.cls-13,.cls-2,.cls-3,.cls-4,.cls-5,.cls-6,.cls-7,.cls-8,.cls-9{stroke-width:0.31px;}.cls-2{stroke:url(#linear-gradient-2);}.cls-3{stroke:url(#linear-gradient-3);}.cls-4{stroke:url(#linear-gradient-4);}.cls-5{stroke:url(#linear-gradient-5);}.cls-6{stroke:url(#linear-gradient-6);}.cls-7{stroke:url(#linear-gradient-7);}.cls-8{stroke:url(#linear-gradient-8);}.cls-9{stroke:url(#linear-gradient-9);}.cls-10{stroke:url(#linear-gradient-10);}.cls-11{stroke:url(#linear-gradient-11);}.cls-12{stroke:url(#linear-gradient-12);}.cls-13{stroke:url(#linear-gradient-13);}.cls-14,.cls-15{stroke-width:0.61px;}.cls-14{stroke:url(#linear-gradient-14);}.cls-15{stroke:url(#linear-gradient-15);}.cls-16,.cls-17{stroke-width:0.92px;}.cls-16{stroke:url(#linear-gradient-16);}.cls-17{stroke:url(#linear-gradient-17);}.cls-18,.cls-19{stroke-width:1.22px;}.cls-18{stroke:url(#linear-gradient-18);}.cls-19{stroke:url(#linear-gradient-19);}.cls-20{stroke:url(#linear-gradient-20);}.cls-21{stroke:url(#linear-gradient-21);}.cls-22,.cls-23{stroke-width:2.44px;}.cls-22{stroke:url(#linear-gradient-22);}.cls-23{stroke:url(#linear-gradient-23);}.cls-24{stroke:#f7cd33;}.cls-25{font-size:91.65px;font-family:Blinker-Bold, Blinker;font-weight:700;}.cls-25,.cls-29{fill:#f7cd33;}.cls-26{letter-spacing:-0.01em;}.cls-27{letter-spacing:-0.01em;}.cls-28{letter-spacing:-0.08em;}</style><linearGradient id="linear-gradient" x1="446.31" y1="248.36" x2="1092.08" y2="235.93" gradientUnits="userSpaceOnUse"><stop offset="0" stop-color="#f7cd33" stop-opacity="0.8"/><stop offset="0.05" stop-color="#f7cd33" stop-opacity="0.85"/><stop offset="0.17" stop-color="#f7cd33" stop-opacity="0.92"/><stop offset="0.31" stop-color="#f7cd33" stop-opacity="0.96"/><stop offset="0.5" stop-color="#f7cd33" stop-opacity="0.99"/><stop offset="1" stop-color="#f7cd33"/></linearGradient><linearGradient id="linear-gradient-2" x1="488.66" y1="307.43" x2="1018.97" y2="307.43" gradientTransform="matrix(1, -0.02, 0.02, 1, -5.78, -50.05)" xlink:href="#linear-gradient"/><linearGradient id="linear-gradient-3" x1="512.68" y1="-27061.35" x2="1207.61" y2="-27061.35" gradientTransform="matrix(0.77, 0, -0.03, 0, -749.19, 350.54)" gradientUnits="userSpaceOnUse"><stop offset="0" stop-color="#aacf34" stop-opacity="0.8"/><stop offset="0.15" stop-color="#aacf34" stop-opacity="0.88"/><stop offset="0.34" stop-color="#aacf34" stop-opacity="0.95"/><stop offset="0.58" stop-color="#aacf34" stop-opacity="0.99"/><stop offset="1" stop-color="#aacf34"/></linearGradient><linearGradient id="linear-gradient-4" x1="480.84" y1="307.43" x2="1025.19" y2="307.43" gradientTransform="matrix(1, -0.02, 0.02, 1, -5.78, -50.05)" gradientUnits="userSpaceOnUse"><stop offset="0" stop-color="#1fa9ce" stop-opacity="0.8"/><stop offset="0.14" stop-color="#1fa9ce" stop-opacity="0.89"/><stop offset="0.31" stop-color="#1fa9ce" stop-opacity="0.95"/><stop offset="0.53" stop-color="#1fa9ce" stop-opacity="0.99"/><stop offset="0.97" stop-color="#1fa9ce"/><stop offset="1" stop-color="#1fa9ce"/></linearGradient><linearGradient id="linear-gradient-5" x1="912.62" y1="-15470.84" x2="1540.9" y2="-15470.84" gradientTransform="matrix(0.79, 0, -0.03, 0.01, -680.46, 349.32)" gradientUnits="userSpaceOnUse"><stop offset="0" stop-color="#c62086" stop-opacity="0.8"/><stop offset="0.13" stop-color="#c62086" stop-opacity="0.89"/><stop offset="0.3" stop-color="#c62086" stop-opacity="0.95"/><stop offset="0.52" stop-color="#c62086" stop-opacity="0.99"/><stop offset="1" stop-color="#c62086"/></linearGradient><linearGradient id="linear-gradient-6" x1="531.12" y1="307.41" x2="1031.57" y2="307.41" gradientTransform="matrix(1, -0.02, 0.02, 1, -5.78, -50.05)" gradientUnits="userSpaceOnUse"><stop offset="0" stop-color="#fe3e16" stop-opacity="0.8"/><stop offset="0.26" stop-color="#fe3e16" stop-opacity="0.87"/><stop offset="0.72" stop-color="#fe3e16" stop-opacity="0.96"/><stop offset="1" stop-color="#fe3e16"/></linearGradient><linearGradient id="linear-gradient-7" x1="1051.1" y1="-8755.68" x2="1679.37" y2="-8755.68" gradientTransform="matrix(0.81, 0, -0.03, 0.01, -610.01, 346.99)" gradientUnits="userSpaceOnUse"><stop offset="0" stop-color="#f39200" stop-opacity="0.8"/><stop offset="0.05" stop-color="#f39200" stop-opacity="0.83"/><stop offset="0.18" stop-color="#f39200" stop-opacity="0.91"/><stop offset="0.34" stop-color="#f39200" stop-opacity="0.96"/><stop offset="0.55" stop-color="#f39200" stop-opacity="0.99"/><stop offset="1" stop-color="#f39200"/></linearGradient><linearGradient id="linear-gradient-8" x1="524.35" y1="306.92" x2="1038.12" y2="306.92" gradientTransform="matrix(1, -0.02, 0.02, 1, -5.78, -50.05)" xlink:href="#linear-gradient"/><linearGradient id="linear-gradient-9" x1="1100.46" y1="-4868.81" x2="1706.34" y2="-4868.81" gradientTransform="matrix(0.84, 0, -0.03, 0.02, -537.86, 342.7)" xlink:href="#linear-gradient-3"/><linearGradient id="linear-gradient-10" x1="534.4" y1="306.33" x2="1044.83" y2="306.33" xlink:href="#linear-gradient-4"/><linearGradient id="linear-gradient-11" x1="535.06" y1="305.77" x2="1048.25" y2="305.77" gradientTransform="matrix(1, -0.02, 0.02, 1, -5.78, -50.05)" xlink:href="#linear-gradient-5"/><linearGradient id="linear-gradient-12" x1="532.25" y1="305.02" x2="1051.72" y2="305.02" xlink:href="#linear-gradient-6"/><linearGradient id="linear-gradient-13" x1="530.18" y1="304.04" x2="1055.22" y2="304.04" gradientTransform="matrix(1, -0.02, 0.02, 1, -5.78, -50.05)" xlink:href="#linear-gradient-7"/><linearGradient id="linear-gradient-14" x1="528.01" y1="302.79" x2="1058.82" y2="302.79" gradientTransform="matrix(1, -0.02, 0.02, 1, -5.78, -50.05)" xlink:href="#linear-gradient"/><linearGradient id="linear-gradient-15" x1="525.93" y1="301.11" x2="1062.42" y2="301.11" gradientTransform="matrix(1, -0.02, 0.02, 1, -5.78, -50.05)" xlink:href="#linear-gradient-3"/><linearGradient id="linear-gradient-16" x1="523.89" y1="297.76" x2="1067.35" y2="297.76" xlink:href="#linear-gradient-4"/><linearGradient id="linear-gradient-17" x1="522.19" y1="293.19" x2="1072.39" y2="293.19" gradientTransform="matrix(1, -0.02, 0.02, 1, -5.78, -50.05)" xlink:href="#linear-gradient-5"/><linearGradient id="linear-gradient-18" x1="522.75" y1="287.32" x2="1076.74" y2="287.32" xlink:href="#linear-gradient-6"/><linearGradient id="linear-gradient-19" x1="518.69" y1="279.75" x2="1081.2" y2="279.75" gradientTransform="matrix(1, -0.02, 0.02, 1, -5.78, -50.05)" xlink:href="#linear-gradient-7"/><linearGradient id="linear-gradient-20" x1="519.72" y1="269.74" x2="1085.85" y2="269.74" gradientTransform="matrix(1, -0.02, 0.02, 1, -5.78, -50.05)" xlink:href="#linear-gradient"/><linearGradient id="linear-gradient-21" x1="518.42" y1="256.62" x2="1090.04" y2="256.62" gradientTransform="matrix(1, -0.02, 0.02, 1, -5.78, -50.05)" xlink:href="#linear-gradient-3"/><linearGradient id="linear-gradient-22" x1="515.84" y1="239.31" x2="1094.67" y2="239.31" xlink:href="#linear-gradient-4"/><linearGradient id="linear-gradient-23" x1="515.79" y1="220.76" x2="1094.13" y2="220.76" gradientTransform="matrix(1, -0.02, 0.02, 1, -5.78, -50.05)" xlink:href="#linear-gradient-5"/></defs><path class="cls-1" d="M446.2,242.1h646"/><polyline class="cls-2" points="488.6 241.5 544 241.3 552.2 242 600.9 241.5 617.8 242.3 682.1 242 691.1 242.6 764.1 242.4 804.3 243.1 897 242.8 902.4 243.7 969.7 243.6 965.3 244 999.6 243.7 1019 244.1"/><polyline class="cls-3" points="484.7 241.6 540.9 241.2 549.2 242.1 598.5 241.3 615.6 242.3 680.7 241.9 689.9 242.7 763.9 242.3 804.6 243.1 898.4 242.5 904 243.8 972.2 243.5 967.7 244.1 1002.5 243.6 1022.1 244.1"/><polyline class="cls-4" points="1025.3 244.1 1005.3 243.4 970.1 244.1 974.6 243.3 905.6 243.8 899.9 242.2 804.9 243.1 763.6 242.1 688.7 242.7 679.3 241.7 613.4 242.4 596 241.1 546.1 242.2 537.6 241 480.8 241.6"/><polyline class="cls-5" points="534.4 240.8 543 242.3 593.5 240.8 611.2 242.5 677.9 241.5 687.4 242.8 763.3 241.8 805.1 243.2 901.4 241.8 907.2 243.9 977.1 243.2 972.5 244.2 1008.2 243.2 1028.4 244"/><polyline class="cls-6" points="531.1 240.5 539.8 242.4 591 240.4 608.9 242.6 676.5 241.2 686.1 242.9 763 241.5 805.4 243.2 902.9 241.3 908.8 244.1 979.6 242.9 975 244.3 1011.1 243 1031.6 244"/><polyline class="cls-7" points="527.7 240.1 536.6 242.7 588.4 239.9 606.6 242.7 675.1 240.8 684.9 243.1 762.7 241.1 805.7 243.2 904.4 240.5 910.4 244.2 982.2 242.6 977.6 244.4 1014.1 242.6 1034.9 244"/><polyline class="cls-8" points="524.3 239.6 533.4 242.9 585.8 239.2 604.3 242.9 673.6 240.3 683.6 243.3 762.4 240.5 806 243.3 905.9 239.6 912.1 244.4 984.7 242.2 980.1 244.6 1017.1 242.2 1038.2 243.9"/><polyline class="cls-9" points="533.8 243 583.1 238.3 602 243.2 672.1 239.6 682.3 243.5 762 239.8 806.3 243.4 907.4 238.4 913.8 244.7 987.3 241.7 982.7 244.8 1020.1 241.5 1041.5 243.8"/><polyline class="cls-10" points="534.4 242.9 580.3 237.2 599.6 243.6 670.5 238.7 681 243.9 761.6 238.9 806.6 243.5 908.9 236.7 915.6 245 989.9 240.9 985.3 245.1 1023.1 240.7 1044.9 243.7"/><polyline class="cls-11" points="535 242.6 577.5 235.7 597.2 244 669 237.6 679.7 244.3 761.2 237.6 806.9 243.6 910.4 234.6 917.3 245.5 992.6 240 988 245.4 1026.2 239.7 1048.3 243.5"/><polyline class="cls-12" points="532.2 242.8 533.3 242.6 533.9 242.5 574.7 233.8 594.8 244.7 667.3 236.1 678.3 244.9 760.8 236 807.2 243.8 911.8 231.8 919.1 246 995.2 238.7 990.7 245.9 1029.2 238.3 1051.7 243.2"/><polyline class="cls-13" points="530.2 242.8 530.6 242.7 571.7 231.2 592.4 245.5 665.6 234.1 677 245.7 760.3 233.9 807.5 244 913.1 228.1 921 246.8 997.8 237.1 993.5 246.5 1032.3 236.4 1055.2 242.9"/><polyline class="cls-14" points="528.1 242.8 528.9 242.5 568.6 227.8 590 246.6 663.8 231.6 675.7 246.7 759.8 231 807.9 244.3 914.4 223.2 922.9 247.8 1000.5 234.9 996.3 247.3 1035.3 234 1058.8 242.5"/><polyline class="cls-15" points="526 242.5 526.7 242.1 565.4 223.4 587.6 248 662 228.2 674.4 248.1 759.1 227.3 808.2 244.7 915.6 216.8 924.8 249.1 1003.1 232.1 999.2 248.3 1038.4 230.8 1062.3 241.9"/><polyline class="cls-16" points="524.1 242.6 563 219.7 585.1 249.9 660 223.7 673.1 249.8 758.4 222.5 808.6 245.2 916.6 208.4 926.8 250.8 1005.6 228.3 1002.1 249.6 1041.4 226.6 1067.2 241.9"/><polyline class="cls-17" points="1072.2 242.1 1044.3 221 1005.2 251.4 1008.1 223.4 928.8 253 917.4 197.4 808.9 245.9 757.5 216.1 671.8 252.2 657.9 217.9 582.7 252.4 560.5 215.1 522.4 242.6"/><polyline class="cls-18" points="523.1 241.5 558.7 211.1 580.4 255.7 655.5 210.3 670.6 255.2 756.4 207.7 809.3 246.8 917.9 182.9 931 256 1010.5 216.9 1008.3 253.7 1047.1 213.8 1076.4 241.9"/><polyline class="cls-19" points="519.1 242.1 555.5 201 578.1 260 653 200.2 669.5 259.2 755.2 196.7 809.8 248 918.1 163.9 933.3 259.8 1012.8 208.3 1011.5 256.7 1049.7 204.2 1080.8 241.9"/><polyline class="cls-20" points="520.3 242.3 557 205.8 575.8 265.6 650.2 187 668.4 264.5 753.5 182.3 810.2 249.5 917.7 138.9 935.6 264.9 1014.8 197.1 1014.8 260.7 1052.1 191.6 1085.1 241.9"/><polyline class="cls-21" points="519.1 242.1 554 196.3 573.7 273 646.9 169.6 667.5 271.5 751.5 163.3 810.8 251.6 916.7 106 938.2 271.6 1016.6 182.4 1018.3 265.9 1054.3 175.1 1089.3 241.6"/><polyline class="cls-22" points="516.8 242.6 552.3 190.6 571.8 282.8 643.2 146.9 666.7 280.6 749 138.4 811.3 254.2 914.8 62.8 941 280.3 1018 163.1 1021.9 272.7 1056 153.4 1093.6 241.6"/><polyline class="cls-23" points="516.8 242.6 551.7 182.7 572.1 306.6 638.8 116.9 666.2 292.6 745.8 105.6 812 257.7 911.7 6.2 944 291.8 1018.9 137.6 1025.8 281.7 1057.1 125 1092.7 226.8"/><path class="cls-24" d="M390.2,242.1H558"/><path class="cls-24" d="M0,242.2H105.2"/><text class="cls-25" transform="translate(82 170.2)">SP<tspan class="cls-26" x="96.2" y="0">E</tspan><tspan x="141.7" y="0">CTRUM</tspan><tspan class="cls-27" x="0" y="72">S</tspan><tspan class="cls-28" x="43.6" y="72">T</tspan><tspan x="84" y="72">AKING</tspan></text><path class="cls-24" d="M1034.9,242.1h95.8"/><rect class="cls-29" x="400.5" y="230.6" width="8.5" height="11.58"/><rect class="cls-29" x="84.7" y="235.2" width="3.7" height="6.56"/></svg>