<svg id="Layer_1" data-name="Layer 1" xmlns="http://www.w3.org/2000/svg" viewBox="0 0 132.3 162.7"><defs><style>.cls-1,.cls-2,.cls-3,.cls-4,.cls-5{fill:none;}.cls-1,.cls-2{stroke:#1fa9ce;stroke-linecap:round;}.cls-1,.cls-3,.cls-4,.cls-5{stroke-miterlimit:10;}.cls-1,.cls-2,.cls-3,.cls-4{stroke-width:3px;}.cls-2{stroke-linejoin:round;}.cls-3{stroke:#fe3e16;}.cls-4,.cls-5{stroke:#aacf34;fill-rule:evenodd;}.cls-5{stroke-width:1.91px;}</style></defs><path class="cls-1" d="M58.5,72.6V24.8A2.9,2.9,0,0,1,61.4,22h49.7l18.1,18.1v67.5a2.8,2.8,0,0,1-2.8,2.8H75.3"/><line class="cls-2" x1="107.4" y1="69.1" x2="85.8" y2="69.1"/><line class="cls-2" x1="107.4" y1="47.8" x2="85.8" y2="47.8"/><line class="cls-2" x1="93.2" y1="77.8" x2="117.6" y2="77.8"/><line class="cls-2" x1="103.8" y1="87.5" x2="74.6" y2="87.5"/><line class="cls-2" x1="69.7" y1="59.5" x2="99.2" y2="59.5"/><path class="cls-3" d="M75.5,95.7a31.2,31.2,0,0,0-3.3-9.1l3.9-5.3-2.2-3.2-2.5-3-6.2,2.4a31.2,31.2,0,0,0-8-5.6V65.2A39.2,39.2,0,0,0,49.8,63l-3.6,5.5a33.6,33.6,0,0,0-9.5.1l-4-5.4a32.1,32.1,0,0,0-7.2,2.4l.5,6.7a24.8,24.8,0,0,0-4,2.6A26.7,26.7,0,0,0,18.4,78l-6.3-2.1L7.8,82.1,12,87.3a34.3,34.3,0,0,0-2.6,9.2l-6.3,2a33.3,33.3,0,0,0,.3,7.7L9.8,108a35.6,35.6,0,0,0,3.3,9.1l-3.9,5.3c.7,1.1,1.5,2.1,2.3,3.2a34.7,34.7,0,0,0,2.5,2.9l6.1-2.3a33.1,33.1,0,0,0,8,5.6v6.6a39.6,39.6,0,0,0,7.4,2.3l3.6-5.5a33.6,33.6,0,0,0,9.5-.1l4,5.4a35.8,35.8,0,0,0,7.2-2.4l-.4-6.7a30.2,30.2,0,0,0,4-2.6,25.9,25.9,0,0,0,3.5-3.1l6.4,2.1a38.1,38.1,0,0,0,4.3-6.2l-4.3-5.3a32.6,32.6,0,0,0,2.6-9.1l6.3-2a39.9,39.9,0,0,0-.2-7.7ZM57.1,120.8a23.8,23.8,0,1,1,4.6-33.4A23.9,23.9,0,0,1,57.1,120.8Z"/><path class="cls-4" d="M43,115.8a10.9,10.9,0,1,1,10.9-10.9A10.9,10.9,0,0,1,43,115.8"/><path class="cls-5" d="M43,102.1a2.2,2.2,0,0,0-2.1,2.1,2.1,2.1,0,0,0,.8,1.6v2.5a1.3,1.3,0,0,0,1.3,1.3,1.3,1.3,0,0,0,1.4-1.3v-2.5a2.4,2.4,0,0,0,.7-1.6,2.1,2.1,0,0,0-2.1-2.1"/><path class="cls-4" d="M34.9,97.5V95.1A8.1,8.1,0,0,1,43,87a8.2,8.2,0,0,1,8.2,8.1v2.6"/></svg>