<svg id="Layer_1" data-name="Layer 1" xmlns="http://www.w3.org/2000/svg" viewBox="0 0 132.3 162.7"><defs><style>.cls-1,.cls-2,.cls-3{fill:none;stroke-miterlimit:10;stroke-width:3px;fill-rule:evenodd;}.cls-1{stroke:#fe3e16;}.cls-2{stroke:#1fa9ce;}.cls-3{stroke:#aacf34;}</style></defs><path class="cls-1" d="M125.2,36.9a2.1,2.1,0,0,0-1.9-1.8c-32.1-2.7-55.5-23-55.8-23.2a2.1,2.1,0,0,0-2.8,0C64.5,12.1,41,32.4,9,35.1a2,2,0,0,0-1.9,1.8c-.2.9-3.2,21.2,2.4,45.5,5.2,22.6,19.1,52.9,55.8,68.8l.8.2.9-.2c36.7-15.9,50.6-46.2,55.7-68.8a134.3,134.3,0,0,0,2.5-45.5"/><path class="cls-2" d="M108.9,46.3C85.1,44.2,67.7,29.2,67.5,29a2.1,2.1,0,0,0-2.8,0c-.1.2-17.6,15.2-41.3,17.3a2.1,2.1,0,0,0-2,1.7c-.1.7-8.9,63.2,43.9,86.1H67c52.8-22.9,43.9-85.4,43.8-86.1a1.9,1.9,0,0,0-1.9-1.7"/><path class="cls-3" d="M77,64.5,61.2,80l-5.9-5.8a8.7,8.7,0,0,0-12.2.2,8.8,8.8,0,0,0-2.5,6.1,9.2,9.2,0,0,0,2.6,6.1l12,11.6a8.5,8.5,0,0,0,12,0L89.1,76.8a8.4,8.4,0,0,0,2.5-6,8.5,8.5,0,0,0-2.4-6.2A8.7,8.7,0,0,0,77,64.5"/></svg>