<svg id="Layer_1" data-name="Layer 1" xmlns="http://www.w3.org/2000/svg" xmlns:xlink="http://www.w3.org/1999/xlink" viewBox="0 0 73.7 73.7"><defs><style>.cls-1{fill:url(#linear-gradient);}.cls-2{fill:url(#linear-gradient-2);}.cls-3{fill:url(#linear-gradient-3);}.cls-4{fill:url(#linear-gradient-4);}.cls-5{fill:url(#linear-gradient-5);}.cls-6{fill:url(#linear-gradient-6);}</style><linearGradient id="linear-gradient" x1="-632.52" y1="36.85" x2="-646.8" y2="36.85" gradientTransform="matrix(-1, 0, 0, 1, -582.95, 0)" gradientUnits="userSpaceOnUse"><stop offset="0" stop-color="#fe3e16" stop-opacity="0.8"/><stop offset="0.26" stop-color="#fe3e16" stop-opacity="0.87"/><stop offset="0.72" stop-color="#fe3e16" stop-opacity="0.96"/><stop offset="1" stop-color="#fe3e16"/></linearGradient><linearGradient id="linear-gradient-2" x1="41.63" y1="36.85" x2="55.91" y2="36.85" gradientUnits="userSpaceOnUse"><stop offset="0" stop-color="#f39200" stop-opacity="0.8"/><stop offset="0.05" stop-color="#f39200" stop-opacity="0.83"/><stop offset="0.18" stop-color="#f39200" stop-opacity="0.91"/><stop offset="0.34" stop-color="#f39200" stop-opacity="0.96"/><stop offset="0.55" stop-color="#f39200" stop-opacity="0.99"/><stop offset="1" stop-color="#f39200"/></linearGradient><linearGradient id="linear-gradient-3" x1="-616.63" y1="36.85" x2="-630.91" y2="36.85" gradientTransform="matrix(-1, 0, 0, 1, -582.95, 0)" gradientUnits="userSpaceOnUse"><stop offset="0" stop-color="#f7cd33" stop-opacity="0.8"/><stop offset="0.05" stop-color="#f7cd33" stop-opacity="0.85"/><stop offset="0.17" stop-color="#f7cd33" stop-opacity="0.92"/><stop offset="0.31" stop-color="#f7cd33" stop-opacity="0.96"/><stop offset="0.5" stop-color="#f7cd33" stop-opacity="0.99"/><stop offset="1" stop-color="#f7cd33"/></linearGradient><linearGradient id="linear-gradient-4" x1="-608.68" y1="36.85" x2="-622.97" y2="36.85" gradientTransform="matrix(-1, 0, 0, 1, -582.95, 0)" gradientUnits="userSpaceOnUse"><stop offset="0" stop-color="#aacf34" stop-opacity="0.8"/><stop offset="0.15" stop-color="#aacf34" stop-opacity="0.88"/><stop offset="0.34" stop-color="#aacf34" stop-opacity="0.95"/><stop offset="0.58" stop-color="#aacf34" stop-opacity="0.99"/><stop offset="1" stop-color="#aacf34"/></linearGradient><linearGradient id="linear-gradient-5" x1="-600.74" y1="36.85" x2="-615.02" y2="36.85" gradientTransform="matrix(-1, 0, 0, 1, -582.95, 0)" gradientUnits="userSpaceOnUse"><stop offset="0" stop-color="#1fa9ce" stop-opacity="0.8"/><stop offset="0.14" stop-color="#1fa9ce" stop-opacity="0.89"/><stop offset="0.31" stop-color="#1fa9ce" stop-opacity="0.95"/><stop offset="0.53" stop-color="#1fa9ce" stop-opacity="0.99"/><stop offset="0.97" stop-color="#1fa9ce"/><stop offset="1" stop-color="#1fa9ce"/></linearGradient><linearGradient id="linear-gradient-6" x1="-592.79" y1="36.85" x2="-607.08" y2="36.85" gradientTransform="matrix(-1, 0, 0, 1, -582.95, 0)" gradientUnits="userSpaceOnUse"><stop offset="0" stop-color="#c62086" stop-opacity="0.8"/><stop offset="0.13" stop-color="#c62086" stop-opacity="0.89"/><stop offset="0.3" stop-color="#c62086" stop-opacity="0.95"/><stop offset="0.52" stop-color="#c62086" stop-opacity="0.99"/><stop offset="1" stop-color="#c62086"/></linearGradient></defs><path class="cls-1" d="M63.4,37.9a1.5,1.5,0,0,0,0-2.1L57.1,31l-5.6-4.4a1.2,1.2,0,0,0-1.9,1V46.1a1.2,1.2,0,0,0,1.9,1l5.6-4.4Z"/><path class="cls-2" d="M55.4,37.9a1.3,1.3,0,0,0,0-2.1L49.2,31l-5.7-4.4a1.2,1.2,0,0,0-1.9,1V46.1a1.2,1.2,0,0,0,1.9,1l5.7-4.4Z"/><path class="cls-3" d="M47.5,37.9a1.5,1.5,0,0,0,0-2.1L41.2,31l-5.6-4.4a1.2,1.2,0,0,0-1.9,1V46.1a1.2,1.2,0,0,0,1.9,1l5.6-4.4Z"/><path class="cls-4" d="M39.5,37.9a1.3,1.3,0,0,0,0-2.1L33.3,31l-5.7-4.4a1.2,1.2,0,0,0-1.9,1V46.1a1.2,1.2,0,0,0,1.9,1l5.7-4.4Z"/><path class="cls-5" d="M31.6,37.9a1.5,1.5,0,0,0,0-2.1L25.3,31l-5.6-4.4a1.2,1.2,0,0,0-1.9,1V46.1a1.2,1.2,0,0,0,1.9,1l5.6-4.4Z"/><path class="cls-6" d="M23.6,37.9a1.3,1.3,0,0,0,0-2.1L17.4,31l-5.7-4.4a1.2,1.2,0,0,0-1.9,1V46.1a1.2,1.2,0,0,0,1.9,1l5.7-4.4Z"/></svg>