<svg xmlns="http://www.w3.org/2000/svg" xmlns:xlink="http://www.w3.org/1999/xlink" viewBox="0 0 318.9 116.3"><defs><style>.cls-1{fill:#2a506a;}.cls-2{fill:url(#linear-gradient);}.cls-3{fill:#f39200;}.cls-4{fill:url(#linear-gradient-2);}.cls-5{fill:url(#linear-gradient-3);}.cls-6{fill:url(#linear-gradient-4);}.cls-7{fill:url(#linear-gradient-5);}.cls-8{fill:#fff;}</style><linearGradient id="linear-gradient" x1="1464.6" y1="86.03" x2="1495.98" y2="86.03" gradientTransform="matrix(-1, 0, 0, 1, 1584.75, 0)" gradientUnits="userSpaceOnUse"><stop offset="0" stop-color="#fe3e16" stop-opacity="0.8"/><stop offset="0.15" stop-color="#fe3e16" stop-opacity="0.85"/><stop offset="0.44" stop-color="#fe3e16" stop-opacity="0.93"/><stop offset="0.72" stop-color="#fe3e16" stop-opacity="0.98"/><stop offset="1" stop-color="#fe3e16"/></linearGradient><linearGradient id="linear-gradient-2" x1="1499.51" y1="86.03" x2="1530.89" y2="86.03" gradientTransform="matrix(-1, 0, 0, 1, 1584.75, 0)" gradientUnits="userSpaceOnUse"><stop offset="0" stop-color="#f7cd33" stop-opacity="0.8"/><stop offset="0.14" stop-color="#f7cd33" stop-opacity="0.85"/><stop offset="0.43" stop-color="#f7cd33" stop-opacity="0.93"/><stop offset="0.72" stop-color="#f7cd33" stop-opacity="0.98"/><stop offset="1" stop-color="#f7cd33"/></linearGradient><linearGradient id="linear-gradient-3" x1="1516.97" y1="86.03" x2="1548.35" y2="86.03" gradientTransform="matrix(-1, 0, 0, 1, 1584.75, 0)" gradientUnits="userSpaceOnUse"><stop offset="0" stop-color="#aacf34" stop-opacity="0.8"/><stop offset="0.05" stop-color="#aacf34" stop-opacity="0.82"/><stop offset="0.38" stop-color="#aacf34" stop-opacity="0.92"/><stop offset="0.69" stop-color="#aacf34" stop-opacity="0.98"/><stop offset="1" stop-color="#aacf34"/></linearGradient><linearGradient id="linear-gradient-4" x1="1534.42" y1="86.03" x2="1565.81" y2="86.03" gradientTransform="matrix(-1, 0, 0, 1, 1584.75, 0)" gradientUnits="userSpaceOnUse"><stop offset="0" stop-color="#1fa9ce" stop-opacity="0.8"/><stop offset="0.05" stop-color="#1fa9ce" stop-opacity="0.82"/><stop offset="0.37" stop-color="#1fa9ce" stop-opacity="0.92"/><stop offset="0.69" stop-color="#1fa9ce" stop-opacity="0.98"/><stop offset="1" stop-color="#1fa9ce"/></linearGradient><linearGradient id="linear-gradient-5" x1="1551.88" y1="86.03" x2="1583.26" y2="86.03" gradientTransform="matrix(-1, 0, 0, 1, 1584.75, 0)" gradientUnits="userSpaceOnUse"><stop offset="0" stop-color="#c62086" stop-opacity="0.8"/><stop offset="0.03" stop-color="#c62086" stop-opacity="0.81"/><stop offset="0.36" stop-color="#c62086" stop-opacity="0.92"/><stop offset="0.69" stop-color="#c62086" stop-opacity="0.98"/><stop offset="1" stop-color="#c62086"/></linearGradient></defs><g id="Layer_2" data-name="Layer 2"><g id="Layer_1-2" data-name="Layer 1"><path class="cls-1" d="M15,42.8a19.9,19.9,0,0,1-8.8-2A14.5,14.5,0,0,1,0,35l4.5-3.2a10.6,10.6,0,0,0,4.2,4.7,13.1,13.1,0,0,0,6.7,1.7,9.7,9.7,0,0,0,5.5-1.4,3.9,3.9,0,0,0,1.9-3.5,4,4,0,0,0-.9-2.5c-.5-.8-1.7-1.3-3.3-1.7l-7.9-1.6q-4.8-1-6.9-3.3a8.4,8.4,0,0,1-2-5.7,8.6,8.6,0,0,1,1.5-4.9A10.6,10.6,0,0,1,7.7,10a15.7,15.7,0,0,1,6.7-1.3,15.8,15.8,0,0,1,8.2,1.9,11.2,11.2,0,0,1,5,5.3l-4.4,2.9a7.5,7.5,0,0,0-3.6-4.2,10.6,10.6,0,0,0-5.2-1.3,12,12,0,0,0-4,.6,6.4,6.4,0,0,0-2.6,1.8A4.7,4.7,0,0,0,7,18.3,4.4,4.4,0,0,0,7.9,21a6.1,6.1,0,0,0,3.7,1.7l8.2,1.7c3.1.6,5.2,1.6,6.4,3a7.2,7.2,0,0,1,1.9,5.1A9.4,9.4,0,0,1,26.4,38a10,10,0,0,1-4.5,3.5A16.7,16.7,0,0,1,15,42.8Z"/><path class="cls-1" d="M38.8,55.9V9.3h4.6l.5,8-.7-.9a10.4,10.4,0,0,1,2.5-4,12,12,0,0,1,4.1-2.8,15.5,15.5,0,0,1,5.3-.9,13.7,13.7,0,0,1,7.4,2,15.9,15.9,0,0,1,5.4,5.8,20.1,20.1,0,0,1,2,9.2,20.1,20.1,0,0,1-2,9.2,15.7,15.7,0,0,1-5.5,5.9,15,15,0,0,1-7.5,2,12.8,12.8,0,0,1-7.1-2,11.3,11.3,0,0,1-4.4-5.1l.7-1V55.9ZM54.4,38.2A9.3,9.3,0,0,0,62,34.8c1.8-2.3,2.7-5.3,2.7-9.1s-.9-6.8-2.7-9a8.8,8.8,0,0,0-7.4-3.4,9.8,9.8,0,0,0-5.5,1.5,10.4,10.4,0,0,0-3.7,4.3,15.3,15.3,0,0,0-1.3,6.6,15.3,15.3,0,0,0,1.3,6.6A9,9,0,0,0,49,36.6,8.9,8.9,0,0,0,54.4,38.2Z"/><path class="cls-1" d="M96.7,42.8a17.3,17.3,0,0,1-8.3-2,14.1,14.1,0,0,1-5.7-5.9,18.9,18.9,0,0,1-2-9.2,18.5,18.5,0,0,1,2-9.1,13.9,13.9,0,0,1,5.6-5.9,15.1,15.1,0,0,1,8-2,15.2,15.2,0,0,1,7.9,1.9,12.2,12.2,0,0,1,4.9,5.4,15.8,15.8,0,0,1,1.7,7.6v2c-.1.6-.1,1.2-.2,1.6H84.1V22.6h24.2l-2.7.5c0-3.2-.9-5.6-2.6-7.3a9.2,9.2,0,0,0-6.8-2.5,9.8,9.8,0,0,0-5.5,1.4A9,9,0,0,0,87.1,19a15.4,15.4,0,0,0-1.3,6.7,15.4,15.4,0,0,0,1.3,6.7,9.8,9.8,0,0,0,3.7,4.3,10.5,10.5,0,0,0,5.7,1.5,11.4,11.4,0,0,0,5.9-1.4,11.9,11.9,0,0,0,3.7-3.7l4.1,2.4a13.4,13.4,0,0,1-3.2,3.9,14.1,14.1,0,0,1-4.5,2.5A17.6,17.6,0,0,1,96.7,42.8Z"/><path class="cls-1" d="M137.5,8.7a16.4,16.4,0,0,1,6,1,13.7,13.7,0,0,1,4.5,3,15.1,15.1,0,0,1,3,4.7l-4.9,2.4a10.3,10.3,0,0,0-3.2-4.9,8.9,8.9,0,0,0-5.6-1.6,10.1,10.1,0,0,0-5.6,1.4,9,9,0,0,0-3.6,4.3,15.4,15.4,0,0,0-1.3,6.7,15.4,15.4,0,0,0,1.3,6.7,9,9,0,0,0,3.6,4.3,10.2,10.2,0,0,0,5.6,1.5,12.5,12.5,0,0,0,4.5-.8,7.6,7.6,0,0,0,3-2.3,7.5,7.5,0,0,0,1.7-3.7l4.9,1.7a15.6,15.6,0,0,1-3.1,5.2,11.5,11.5,0,0,1-4.6,3.3,15.6,15.6,0,0,1-6.2,1.2,16.9,16.9,0,0,1-8.2-2,15.4,15.4,0,0,1-5.7-5.9,20.1,20.1,0,0,1-2-9.2,19.7,19.7,0,0,1,2-9.1,14.7,14.7,0,0,1,5.7-5.9A15.8,15.8,0,0,1,137.5,8.7Z"/><path class="cls-1" d="M185.9,9.3v4.5H162.1V9.3ZM173.9,0V33.1a4.6,4.6,0,0,0,1.4,3.6,5.1,5.1,0,0,0,3.5,1.2,8.1,8.1,0,0,0,3.3-.7,7.2,7.2,0,0,0,2.5-1.8l1.9,4.4a10.3,10.3,0,0,1-3.6,2.2,14.2,14.2,0,0,1-4.8.8,11.8,11.8,0,0,1-4.6-.9,7.4,7.4,0,0,1-3.5-2.8,9.6,9.6,0,0,1-1.3-5.1V1.4Z"/><path class="cls-1" d="M197.2,42.1V9.3h4.3l.7,5.4a9.3,9.3,0,0,1,4-4.5,13,13,0,0,1,6.5-1.5h1.8l1.8.5-.9,4.8-1.6-.4h-2.4a7.8,7.8,0,0,0-4.1,1.2,9,9,0,0,0-3.5,3.5,12.5,12.5,0,0,0-1.4,6.1V42.1Z"/><path class="cls-1" d="M239.2,42.8a14.5,14.5,0,0,1-5.9-1.2,9.8,9.8,0,0,1-4.5-3.8,12.3,12.3,0,0,1-1.8-7V9.3h5.3V29.5c0,3.3.7,5.6,2.1,6.8a8.9,8.9,0,0,0,6.1,1.9,10.5,10.5,0,0,0,3.6-.6,8.3,8.3,0,0,0,3.2-2,9.3,9.3,0,0,0,2.3-3.4,15,15,0,0,0,.8-5V9.3h5.2V42.1H251l-.3-5a10,10,0,0,1-4.6,4.3A16.7,16.7,0,0,1,239.2,42.8Z"/><path class="cls-1" d="M266.4,42.1V9.3H271l.3,5.1a11.4,11.4,0,0,1,4.6-4.4,13.7,13.7,0,0,1,5.9-1.3,14.4,14.4,0,0,1,6.5,1.5,10.8,10.8,0,0,1,4.8,4.9,9.4,9.4,0,0,1,2.9-3.6,14.1,14.1,0,0,1,4.2-2.2,16.5,16.5,0,0,1,4.3-.6,13.8,13.8,0,0,1,6,1.3,10.7,10.7,0,0,1,4.7,4,12.9,12.9,0,0,1,1.8,7.1v21h-5.2V21.7c0-3-.8-5.2-2.3-6.5a7.8,7.8,0,0,0-5.5-1.9,10.1,10.1,0,0,0-4.8,1.2,9.6,9.6,0,0,0-3.5,3.7,12,12,0,0,0-1.4,5.9v18h-5.2V21.7c0-3-.8-5.2-2.3-6.5a7.8,7.8,0,0,0-5.5-1.9,9.2,9.2,0,0,0-4.4,1.1,10,10,0,0,0-3.8,3.6,12.9,12.9,0,0,0-1.5,6.6V42.1Z"/><path class="cls-2" d="M119.1,88.1a2.6,2.6,0,0,0,0-4.2L105.4,73.8,92.9,64.6a2.6,2.6,0,0,0-4.1,2.1v38.6a2.5,2.5,0,0,0,4.1,2.1l12.5-9.1Z"/><path class="cls-3" d="M101.6,88.1a2.5,2.5,0,0,0,0-4.2L87.9,73.8,75.5,64.6a2.7,2.7,0,0,0-4.2,2.1v38.6a2.6,2.6,0,0,0,4.2,2.1l12.4-9.1Z"/><path class="cls-4" d="M84.2,88.1a2.6,2.6,0,0,0,0-4.2L70.4,73.8,58,64.6a2.6,2.6,0,0,0-4.1,2.1v38.6a2.5,2.5,0,0,0,4.1,2.1l12.4-9.1Z"/><path class="cls-5" d="M66.7,88.1a2.6,2.6,0,0,0,0-4.2L53,73.8,40.6,64.6a2.7,2.7,0,0,0-4.2,2.1v38.6a2.6,2.6,0,0,0,4.2,2.1L53,98.3Z"/><path class="cls-6" d="M49.3,88.1a2.6,2.6,0,0,0,0-4.2L35.5,73.8,23.1,64.6a2.7,2.7,0,0,0-4.2,2.1v38.6a2.6,2.6,0,0,0,4.2,2.1l12.4-9.1Z"/><path class="cls-7" d="M31.8,88.1a2.6,2.6,0,0,0,0-4.2L18.1,73.8,5.7,64.6a2.7,2.7,0,0,0-4.2,2.1v38.6a2.6,2.6,0,0,0,4.2,2.1l12.4-9.1Z"/><path class="cls-8" d="M135.8,102.9a18.7,18.7,0,0,1-8.8-2.1,14.3,14.3,0,0,1-6.2-5.7l4.4-3.3a11.7,11.7,0,0,0,4.3,4.8,12.8,12.8,0,0,0,6.7,1.7,9.4,9.4,0,0,0,5.4-1.4,4,4,0,0,0,1.1-6c-.6-.8-1.7-1.3-3.4-1.7l-7.8-1.6q-4.8-1-6.9-3.3a8,8,0,0,1-2.1-5.7,8.4,8.4,0,0,1,1.6-4.9,10.6,10.6,0,0,1,4.4-3.6,15.4,15.4,0,0,1,6.7-1.4,16.8,16.8,0,0,1,8.2,1.9,12.4,12.4,0,0,1,5,5.4L144,78.9a7.5,7.5,0,0,0-3.6-4.2,11,11,0,0,0-5.2-1.4,11.5,11.5,0,0,0-4,.7,5.5,5.5,0,0,0-2.6,1.8,4.1,4.1,0,0,0-.9,2.6,4.4,4.4,0,0,0,1,2.6c.7.9,1.9,1.4,3.7,1.8l8.2,1.7c3.1.6,5.2,1.6,6.4,3a7.2,7.2,0,0,1,1.9,5.1,8.9,8.9,0,0,1-1.7,5.4,9.8,9.8,0,0,1-4.6,3.6A17.5,17.5,0,0,1,135.8,102.9Z"/><path class="cls-8" d="M173.9,69.4v4.5H150.1V69.4Zm-12-9.3v33a4.7,4.7,0,0,0,1.4,3.7,5.7,5.7,0,0,0,3.6,1.1,7.9,7.9,0,0,0,3.2-.6,7.6,7.6,0,0,0,2.5-1.8l1.9,4.4a12.8,12.8,0,0,1-3.6,2.2,14.2,14.2,0,0,1-4.8.8,11.8,11.8,0,0,1-4.6-.9,8.1,8.1,0,0,1-3.5-2.8,9.6,9.6,0,0,1-1.3-5.1V61.5Z"/><path class="cls-8" d="M198.7,81a8.1,8.1,0,0,0-2-5.7,7.7,7.7,0,0,0-5.6-2,10.6,10.6,0,0,0-5.8,1.5,8.8,8.8,0,0,0-3.4,4.8l-4.3-2.7a11.7,11.7,0,0,1,4.9-5.9,16,16,0,0,1,8.8-2.3,15,15,0,0,1,6.4,1.3,10.1,10.1,0,0,1,4.5,3.6,10.7,10.7,0,0,1,1.7,6.4V95.8c0,1.6.8,2.4,2.5,2.4l2.4-.3-.2,4.1a8.2,8.2,0,0,1-3.4.7,7.4,7.4,0,0,1-3.4-.8,4.7,4.7,0,0,1-2.4-2.2,6.8,6.8,0,0,1-.9-3.7v-.6l1.3.2a8.3,8.3,0,0,1-2.6,4.1,12.2,12.2,0,0,1-4.3,2.4,15.5,15.5,0,0,1-4.7.8,15.1,15.1,0,0,1-5.3-1,9.4,9.4,0,0,1-4-3,8,8,0,0,1-1.5-5,7.9,7.9,0,0,1,2.5-6,13.2,13.2,0,0,1,6.8-3.3l13-2.5v4.3l-10.5,2.2a10.9,10.9,0,0,0-4.8,1.8,3.8,3.8,0,0,0-1.6,3.3,4.1,4.1,0,0,0,1.6,3.3,7.6,7.6,0,0,0,4.6,1.3,14.9,14.9,0,0,0,3.6-.5,12.8,12.8,0,0,0,3.1-1.5,7.8,7.8,0,0,0,2.2-2.6,8,8,0,0,0,.8-3.6Z"/><path class="cls-8" d="M217.5,54.3v47.9h-5.2V54.3Zm23.6,15.1L226.9,83.6l-1.2,1.2L214.9,95.6V89l19.6-19.6ZM227.4,80.9l14.5,21.3h-6.4L223,83.8Z"/><path class="cls-8" d="M247.7,63.1a3.8,3.8,0,0,1-2.8-1.1,3.9,3.9,0,0,1-1.1-2.8,4,4,0,0,1,1.1-2.9,3.8,3.8,0,0,1,2.8-1.1,3.8,3.8,0,0,1,4,4,3.9,3.9,0,0,1-1.1,2.8A4,4,0,0,1,247.7,63.1Zm2.7,6.3v32.8h-5.3V69.4Z"/><path class="cls-8" d="M256,102.2V69.4h4.6l.4,7.3-.8-.7a11.5,11.5,0,0,1,2.8-4.2,9.9,9.9,0,0,1,4.1-2.3,16.1,16.1,0,0,1,4.8-.8,15.5,15.5,0,0,1,6.5,1.4,10.7,10.7,0,0,1,4.6,4.1,12.5,12.5,0,0,1,1.7,7v21h-5.2V83c0-3.6-.8-6.1-2.3-7.5a8.1,8.1,0,0,0-5.8-2.2,11.5,11.5,0,0,0-4.7,1.1,9.2,9.2,0,0,0-3.9,3.7,12.6,12.6,0,0,0-1.6,6.6v17.5Z"/><path class="cls-8" d="M307.7,98a11.5,11.5,0,0,1,7.3,2.1,7.3,7.3,0,0,1,2.6,5.7,8.1,8.1,0,0,1-2.1,5.6,12.7,12.7,0,0,1-5.7,3.6,23,23,0,0,1-8.1,1.3c-5.1,0-9-.9-11.6-2.6s-3.8-3.9-3.8-6.3a7.3,7.3,0,0,1,1.7-4.7c1.2-1.4,3.2-2.2,5.9-2.3l-.4,1a9.2,9.2,0,0,1-3.8-2,5.7,5.7,0,0,1-1.6-4.2,6.5,6.5,0,0,1,2-4.6,10.3,10.3,0,0,1,6-2.4l3.5,1.8h-.7a8.2,8.2,0,0,0-4.6,1.6,4.3,4.3,0,0,0-1.3,2.8,3.2,3.2,0,0,0,1.3,2.7,6.9,6.9,0,0,0,3.8.9Zm-6.5-29.3a17.1,17.1,0,0,1,7,1.4,12.6,12.6,0,0,1,4.8,4,9.8,9.8,0,0,1,1.7,5.7,10.4,10.4,0,0,1-1.7,5.8,11.5,11.5,0,0,1-4.8,3.9,17.1,17.1,0,0,1-7,1.4c-4.3,0-7.7-1-10-3.1a10.2,10.2,0,0,1-3.4-8,9.2,9.2,0,0,1,1.7-5.7,12.3,12.3,0,0,1,4.7-4A17.5,17.5,0,0,1,301.2,68.7Zm.5,43.2a18.3,18.3,0,0,0,6.2-.8,8.5,8.5,0,0,0,3.7-2,3.7,3.7,0,0,0,1.2-2.7,3.2,3.2,0,0,0-1.5-2.8c-.9-.7-2.6-1.1-5-1.1H296.2a6.1,6.1,0,0,0-3.6,1.1,3.4,3.4,0,0,0-1.4,3c0,1.6.9,2.9,2.8,3.9A17.6,17.6,0,0,0,301.7,111.9ZM301.2,73a8.4,8.4,0,0,0-5.7,1.9,6.4,6.4,0,0,0,0,9.8,9.1,9.1,0,0,0,11.4,0,6.4,6.4,0,0,0,0-9.8A8.4,8.4,0,0,0,301.2,73Zm16.5-9.6,1.2,4.6h-.5a8.2,8.2,0,0,0-5,1.3,4.8,4.8,0,0,0-1.7,4.1l-3.2-1.6a8.4,8.4,0,0,1,1.2-4.5,7.5,7.5,0,0,1,3.2-2.9,9.2,9.2,0,0,1,4.4-1h.4Z"/></g></g></svg>