<?xml version="1.0" encoding="UTF-8" standalone="no"?>
<svg
   xmlns:dc="http://purl.org/dc/elements/1.1/"
   xmlns:cc="http://creativecommons.org/ns#"
   xmlns:rdf="http://www.w3.org/1999/02/22-rdf-syntax-ns#"
   xmlns:svg="http://www.w3.org/2000/svg"
   xmlns="http://www.w3.org/2000/svg"
   style="fill:none"
   id="svg52"
   version="1.1"
   viewBox="0 0 850 850"
   height="850"
   width="850">
  <metadata
     id="metadata58">
    <rdf:RDF>
      <cc:Work
         rdf:about="">
        <dc:format>image/svg+xml</dc:format>
        <dc:type
           rdf:resource="http://purl.org/dc/dcmitype/StillImage" />
        <dc:title></dc:title>
      </cc:Work>
    </rdf:RDF>
  </metadata>
  <defs
     id="defs56" />
  <g
     transform="matrix(3.0588255,0,0,3.0588255,148.06962,-1785.001)"
     id="g4572">
    <path
       d="m 51.8495,796.669 32.1661,-39.647 c 3.3599,-4.141 9.6793,-4.141 13.0393,0 l 32.1661,39.647 c 2.501,3.082 2.501,7.496 0,10.579 l -32.1661,39.646 c -3.36,4.141 -9.6794,4.141 -13.0393,0 L 51.8495,807.248 c -2.5012,-3.083 -2.5012,-7.497 0,-10.579 z"
       id="path2"
       style="opacity:0.62000002;fill:#1ba5f8" />
    <path
       d="m 101.823,699.72 32.166,-39.6468 c 3.36,-4.1414 9.679,-4.1414 13.039,0 l 32.166,39.6468 c 2.501,3.083 2.501,7.496 0,10.579 l -32.166,39.646 c -3.36,4.142 -9.679,4.142 -13.039,0 l -32.166,-39.646 c -2.5013,-3.083 -2.5013,-7.496 0,-10.579 z"
       id="path4"
       style="fill:#1ba5f8" />
    <path
       d="M 1.87588,699.72 34.0419,660.0732 c 3.36,-4.1414 9.6794,-4.1414 13.0393,0 L 79.2473,699.72 c 2.5012,3.083 2.5012,7.496 0,10.579 l -32.1661,39.646 c -3.3599,4.142 -9.6793,4.142 -13.0393,0 L 1.87588,710.299 c -2.501175,-3.083 -2.501175,-7.496 0,-10.579 z"
       id="path6"
       style="fill:#1ba5f8" />
    <path
       d="m 51.8494,637.7525 32.166,-39.64649 c 3.36,-4.14135 9.6794,-4.14135 13.0394,0 l 32.1662,39.64649 c 2.501,3.0829 2.501,7.4962 0,10.5791 l -32.1662,39.6465 c -3.36,4.1413 -9.6794,4.1413 -13.0394,0 l -32.166,-39.6465 c -2.5012,-3.0829 -2.5012,-7.4962 0,-10.5791 z"
       id="path8"
       style="fill:#1ba5f8" />
  </g>
</svg>
