<svg id="Layer_1" data-name="Layer 1" xmlns="http://www.w3.org/2000/svg" viewBox="0 0 132.3 162.7"><defs><style>.cls-1{font-size:40px;font-family:Abel-Regular, Abel;}.cls-1,.cls-7{fill:#aacf34;}.cls-2{fill:#f7cd33;}.cls-3{fill:#f39200;}.cls-4{fill:#fe3e16;}.cls-5{fill:#c62086;}.cls-6{fill:#1fa9ce;}</style></defs><text class="cls-1" transform="translate(28.3 92.5)">24/7</text><rect class="cls-2" x="111.6" y="80.2" width="17" height="2.22"/><rect class="cls-3" x="104.4" y="53.2" width="17" height="2.22" transform="translate(-12.1 63.7) rotate(-30)"/><rect class="cls-4" x="84.6" y="33.5" width="17" height="2.22" transform="translate(16.6 98) rotate(-60)"/><rect class="cls-5" x="57.6" y="26.2" width="17" height="2.22" transform="translate(38.8 93.5) rotate(-90)"/><rect class="cls-6" x="30.6" y="33.5" width="17" height="2.22" transform="translate(28.7 85.8) rotate(-120)"/><rect class="cls-7" x="10.9" y="53.2" width="17" height="2.22" transform="translate(9 111.1) rotate(-150)"/><rect class="cls-2" x="3.6" y="80.2" width="17" height="2.22" transform="translate(24.3 162.7) rotate(-180)"/><rect class="cls-3" x="10.9" y="107.2" width="17" height="2.22" transform="translate(90.3 192.5) rotate(150)"/><rect class="cls-4" x="30.6" y="127" width="17" height="2.22" transform="translate(169.7 158.3) rotate(120)"/><rect class="cls-5" x="57.6" y="134.2" width="17" height="2.22" transform="translate(201.5 69.2) rotate(90)"/><rect class="cls-6" x="84.6" y="127" width="17" height="2.22" transform="translate(157.5 -16.6) rotate(60)"/><rect class="cls-7" x="104.4" y="107.2" width="17" height="2.22" transform="matrix(0.87, 0.5, -0.5, 0.87, 69.3, -41.93)"/></svg>